<!-- Generator: Adobe Illustrator 19.1.0, SVG Export Plug-In  -->
<svg version="1.1"
	 xmlns="http://www.w3.org/2000/svg" xmlns:xlink="http://www.w3.org/1999/xlink" xmlns:a="http://ns.adobe.com/AdobeSVGViewerExtensions/3.0/"
	 x="0px" y="0px" width="134.8px" height="35.3px" viewBox="0 0 134.8 35.3" enable-background="new 0 0 134.8 35.3"
	 xml:space="preserve">
<defs>
</defs>
<g>
	<g opacity="0.25">
		<path fill="#010101" d="M133,27.1c0.8,0.2,1.1-2.3,1.1-2.3c-6.6,2.3-8.9-3.5-8.9-3.5c3.1-1.9,2.4-5.5,2.4-5.5
			c-7.6,1.5-17.2-2.4-17.2-2.4c1.3-0.5,1.1-1.5,1.1-1.5c-9.1-1.4-15.8,3.9-15.8,3.9c0.8-1.3,0-2.3,0-2.3c-2-0.8-5.3,1.3-5.3,1.3
			c-0.6-1.6-2.1-1.6-2.1-1.6c1.6-3.1-1.7-4.2-1.7-4.2c-1-7.6-8.3-3.6-8.3-3.6s0.3-1.7-1-2.7c-3-1.7-4.6,1.4-4.6,1.4
			c-1.3-3.2-5.3-2-5.3-2s-4-1.2-5.3,2c0,0-1.7-3.1-4.6-1.4c-1.3,1-1,2.7-1,2.7s-7.3-3.9-8.3,3.6c0,0-3.3,1.2-1.7,4.2
			c0,0-1.5,0-2.1,1.6c0,0-3.3-2.1-5.3-1.3c0,0-0.8,1,0,2.3c0,0-6.7-5.3-15.8-3.9c0,0-0.2,1,1.1,1.5c0,0-9.7,3.8-17.2,2.4
			c0,0-0.7,3.6,2.4,5.5c0,0-2.3,5.8-8.9,3.5c0,0,0.3,2.5,1.1,2.3c0,0-1.6,1.1-1.8,4.8c0,0,5.7,1.7,9-2.7c0,0,2,4.5,9.6,4.5
			c5.3,0,4.5-3.7,4.5-3.7s-0.2-2.7-3-2.5c0,0-1.8,0-2.3,1.6c0,0-4.6-7.1,2.6-11.3c0,0-3.8,4.6-0.9,7.5c0,0,1.8,0,2.7-1.9
			c0,0-0.8,3.3,1.9,5c0,0,5.5-2.2,7.4-7c0,0,1.7-3.1,8.2-0.2c0,0-11.2,2.2-9.2,9.3c1,3.6,4.3,2.7,4.3,2.7s3.5-0.7,2.1-3.5
			c0,0-0.5-1.7-3.2-1.2c0,0,2.6-4,7.2-0.8s6.2,7.5,15.2,7.5s9.9-3.6,9.9-3.6l1.5,0.8l1.5-0.8c0,0,0.9,3.6,9.9,3.6s10.5-4.2,15.2-7.5
			s7.2,0.8,7.2,0.8c-2.6-0.5-3.2,1.2-3.2,1.2c-1.5,2.8,2.1,3.5,2.1,3.5s3.3,0.9,4.3-2.7c2.1-7.1-9.2-9.3-9.2-9.3
			c6.5-2.9,8.2,0.2,8.2,0.2c1.9,4.8,7.4,7,7.4,7c2.7-1.8,1.9-5,1.9-5c0.9,1.9,2.7,1.9,2.7,1.9c2.9-2.9-0.9-7.5-0.9-7.5
			c7.2,4.2,2.6,11.3,2.6,11.3c-0.4-1.6-2.3-1.6-2.3-1.6c-2.7-0.2-3,2.5-3,2.5s-0.8,3.7,4.5,3.7c7.6,0,9.6-4.5,9.6-4.5
			c3.3,4.3,9,2.7,9,2.7C134.6,28.2,133,27.1,133,27.1z"/>
		<path fill="#010101" d="M63,20.6C59.1,7.8,56.4,5.5,56.4,5.5s-7.3-3.9-8.3,3.6C55.8,12.3,63,20.6,63,20.6z"/>
		<path fill="#010101" d="M46.4,20.3c0,0,8.5-2,11.7,3.3c0,0,0.1-8.3-11.6-10.2c0,0-1.5,0-2.1,1.6C44.4,14.9,43.1,18.3,46.4,20.3z"
			/>
		<path fill="#010101" d="M71.8,20.6c0,0,7.2-8.3,14.8-11.5c-1-7.6-8.3-3.6-8.3-3.6S75.6,7.8,71.8,20.6z"/>
		<path fill="#010101" d="M76.7,23.6c3.2-5.3,11.7-3.3,11.7-3.3c3.3-2,2-5.4,2-5.4c-0.6-1.6-2.1-1.6-2.1-1.6
			C76.5,15.3,76.7,23.6,76.7,23.6z"/>
		<path fill="#010101" d="M72.7,4.2c-1.3-3.2-5.3-2-5.3-2s-4-1.2-5.3,2c0,0,4,7.7,5.3,23.5C68.7,11.9,72.7,4.2,72.7,4.2z"/>
		<circle fill="#010101" cx="67.4" cy="32.5" r="2.4"/>
		<path fill="#010101" d="M9.2,24.6c0,0-8.2,1.9-9.2,7.3C0,32,9,33.2,9.2,24.6z"/>
		<path fill="#010101" d="M30.2,15.5c0,0-15.7-3.7-17.7,7.3c0,0-1,5.5,4.5,4.8C17,27.6,10.1,16.3,30.2,15.5z"/>
		<path fill="#010101" d="M10.6,24.1c0,0-1.6,7.8,6.4,7.9C17,32,10.7,30,10.6,24.1z"/>
		<path fill="#010101" d="M31.7,17.5c0,0-10.8-0.4-7.4,9.7C24.3,27.1,30.9,24.4,31.7,17.5z"/>
		<path fill="#010101" d="M35.6,16.1c0,0-3.7-5.3-12.2-4.1C23.3,12,32.9,13.7,35.6,16.1z"/>
		<path fill="#010101" d="M58.1,4c0,0,3-2,4.9,11.5C63,15.5,59.2,4.6,58.1,4z"/>
		<circle fill="#010101" cx="60.6" cy="25.3" r="2.1"/>
		<path fill="#010101" d="M51.7,29.4c0,0,9.7,10.3,13.4-2.3C65,27.1,61.1,34.7,51.7,29.4z"/>
		<path fill="#010101" d="M46.6,26.1c0,0,6.1-4.7,10.1,0C56.7,26.1,53.2,28.8,46.6,26.1z"/>
		<path fill="#010101" d="M45.3,27.4c0,0,1,5.8,8.7,6.6C54,33.9,49.9,29.3,45.3,27.4z"/>
		<path fill="#010101" d="M32.9,26.5c0,0-5.1,6,3,4.9C35.8,31.4,29.8,31.1,32.9,26.5z"/>
		<path fill="#010101" d="M125.6,24.6c0,0,8.2,1.9,9.2,7.3C134.8,32,125.7,33.2,125.6,24.6z"/>
		<path fill="#010101" d="M104.6,15.5c0,0,15.7-3.7,17.7,7.3c0,0,1,5.5-4.5,4.8C117.7,27.6,124.7,16.3,104.6,15.5z"/>
		<path fill="#010101" d="M124.2,24.1c0,0,1.6,7.8-6.4,7.9C117.7,32,124.1,30,124.2,24.1z"/>
		<path fill="#010101" d="M103.1,17.5c0,0,10.8-0.4,7.4,9.7C110.5,27.1,103.9,24.4,103.1,17.5z"/>
		<path fill="#010101" d="M99.2,16.1c0,0,3.7-5.3,12.2-4.1C111.4,12,101.8,13.7,99.2,16.1z"/>
		<path fill="#010101" d="M76.7,4c0,0-3-2-4.9,11.5C71.8,15.5,75.6,4.6,76.7,4z"/>
		<circle fill="#010101" cx="74.2" cy="25.3" r="2.1"/>
		<path fill="#010101" d="M83.1,29.4c0,0-9.7,10.3-13.4-2.3C69.7,27.1,73.7,34.7,83.1,29.4z"/>
		<path fill="#010101" d="M88.2,26.1c0,0-6.1-4.7-10.1,0C78,26.1,81.6,28.8,88.2,26.1z"/>
		<path fill="#010101" d="M89.5,27.4c0,0-1,5.8-8.7,6.6C80.8,33.9,84.8,29.3,89.5,27.4z"/>
		<path fill="#010101" d="M101.9,26.5c0,0,5.1,6-3,4.9C99,31.4,104.9,31.1,101.9,26.5z"/>
		<path fill="#010101" d="M52.2,5.7c0,0,0.2,0,0.5,0.1C53,5.9,53.5,6.1,54,6.4c0.3,0.1,0.5,0.3,0.8,0.5c0.3,0.2,0.6,0.4,0.8,0.7
			c0.6,0.5,1.1,1.1,1.5,1.7c0.5,0.6,0.9,1.3,1.2,1.9c0.4,0.6,0.6,1.3,0.8,1.8c0.2,0.5,0.3,1,0.4,1.3c0.1,0.3,0.1,0.5,0.1,0.5
			s-0.1-0.2-0.3-0.4c-0.2-0.3-0.5-0.7-0.8-1.2c-0.3-0.5-0.7-1-1.1-1.6c-0.4-0.6-0.8-1.2-1.3-1.8c-0.2-0.3-0.4-0.6-0.7-0.9
			c-0.2-0.3-0.5-0.6-0.7-0.8c-0.5-0.5-0.9-1-1.3-1.4C52.9,6.1,52.2,5.7,52.2,5.7z"/>
		<path fill="#010101" d="M67.4,2.9c0,0,0,0.2,0.1,0.7c0,0.4,0.1,1,0.2,1.8c0.1,1.5,0.2,3.5,0.2,5.4c0,2-0.1,3.9-0.2,5.4
			c-0.1,0.7-0.1,1.4-0.2,1.8c-0.1,0.4-0.1,0.7-0.1,0.7s0-0.2-0.1-0.7c0-0.4-0.1-1-0.2-1.8c-0.1-1.5-0.2-3.5-0.2-5.4
			c0-2,0.1-3.9,0.2-5.4c0.1-0.7,0.1-1.4,0.2-1.8C67.3,3.1,67.4,2.9,67.4,2.9z"/>
		<path fill="#010101" d="M45.8,14.9c0,0,0.8-0.1,1.9,0c1.1,0.1,2.6,0.6,3.9,1.3c0.3,0.2,0.7,0.4,1,0.6c0.3,0.2,0.6,0.4,0.9,0.6
			c0.3,0.2,0.5,0.5,0.8,0.7c0.2,0.2,0.4,0.4,0.6,0.7c0.4,0.4,0.7,0.8,0.8,1.1c0.2,0.3,0.3,0.4,0.3,0.4s-0.2-0.1-0.4-0.3
			c-0.1-0.1-0.3-0.2-0.5-0.3c-0.2-0.1-0.4-0.3-0.6-0.4c-0.4-0.3-1-0.7-1.5-1c-0.6-0.3-1.2-0.7-1.8-1c-0.6-0.3-1.3-0.6-1.9-0.9
			c-0.6-0.3-1.2-0.5-1.7-0.7C46.5,15.1,45.8,14.9,45.8,14.9z"/>
		<path fill="#010101" d="M24.8,25.3c0,0-0.1-0.6,0.1-1.5c0.1-0.4,0.3-0.9,0.5-1.5c0.1-0.3,0.3-0.5,0.4-0.8c0.2-0.2,0.3-0.5,0.5-0.7
			c0.4-0.5,0.8-0.9,1.3-1.2c0.2-0.2,0.5-0.3,0.7-0.4c0.2-0.1,0.5-0.2,0.7-0.3c0.4-0.2,0.8-0.3,1.1-0.3c0.3,0,0.4-0.1,0.4-0.1
			s-0.1,0.1-0.3,0.2c-0.2,0.1-0.5,0.3-0.8,0.6c-0.3,0.2-0.7,0.6-1.1,0.9c-0.4,0.4-0.8,0.8-1.1,1.2c-0.4,0.4-0.7,0.9-1,1.3
			c-0.3,0.4-0.5,0.9-0.7,1.2C25.1,24.8,24.8,25.3,24.8,25.3z"/>
		<path fill="#010101" d="M21.3,16.1c0,0-0.8,0.3-1.9,0.9c-0.5,0.3-1.1,0.7-1.8,1.1c-0.3,0.2-0.6,0.5-0.9,0.7
			c-0.3,0.2-0.5,0.5-0.8,0.8c-0.2,0.3-0.5,0.6-0.7,0.9c-0.1,0.2-0.2,0.3-0.3,0.5c-0.1,0.2-0.1,0.3-0.2,0.5c-0.1,0.2-0.1,0.3-0.2,0.5
			c0,0.2-0.1,0.3-0.1,0.5c0,0.2-0.1,0.3-0.1,0.5c0,0.2,0,0.3,0,0.5c0,0.3-0.1,0.6,0,0.8c0,0.2,0,0.5,0.1,0.6c0,0.4,0,0.6,0,0.6
			s-0.1-0.2-0.2-0.5c-0.1-0.2-0.1-0.4-0.2-0.6c-0.1-0.2-0.1-0.5-0.2-0.9c0-0.2,0-0.3-0.1-0.5c0-0.2,0-0.4,0-0.6c0-0.2,0-0.4,0-0.6
			c0-0.2,0.1-0.4,0.2-0.6c0.1-0.4,0.3-0.8,0.5-1.2c0.2-0.4,0.5-0.7,0.7-1.1c0.3-0.3,0.6-0.6,1-0.9c0.3-0.3,0.7-0.5,1-0.7
			c0.7-0.4,1.4-0.7,2-0.9C20.5,16.1,21.3,16.1,21.3,16.1z"/>
		<path fill="#010101" d="M1.3,31c0,0,0.3-0.5,0.8-1.2c0.5-0.7,1.3-1.4,2.2-2.1c0.9-0.7,1.8-1.3,2.6-1.6c0.7-0.4,1.3-0.5,1.3-0.5
			s-0.4,0.4-1,1c-0.6,0.6-1.4,1.3-2.3,1.9c-0.9,0.7-1.7,1.3-2.4,1.8C1.8,30.8,1.3,31,1.3,31z"/>
		<path fill="#010101" d="M48.2,25.6c0,0,0.5-0.2,1.2-0.4C50,25.1,51,25,51.9,25c1,0,1.9,0.2,2.6,0.4c0.3,0.1,0.6,0.3,0.8,0.4
			c0.2,0.1,0.3,0.2,0.3,0.2s-0.1,0-0.3,0c-0.2,0-0.5,0-0.8,0c-0.7,0-1.6,0-2.5,0c-0.9,0-1.8-0.1-2.5-0.2
			C48.7,25.7,48.2,25.6,48.2,25.6z"/>
		<path fill="#010101" d="M47.3,29.5c0,0,0.3,0.1,0.7,0.4c0.4,0.2,0.9,0.6,1.3,0.9c0.5,0.4,0.9,0.7,1.2,1.1c0.2,0.2,0.3,0.3,0.4,0.4
			c0.1,0.1,0.2,0.2,0.2,0.2s-0.4,0-0.8-0.1c-0.2,0-0.5-0.1-0.8-0.3c-0.3-0.1-0.5-0.3-0.8-0.5c-0.5-0.4-0.9-0.9-1.2-1.3
			C47.3,29.8,47.3,29.5,47.3,29.5z"/>
		<path fill="#010101" d="M82.6,5.7c0,0-0.7,0.3-1.5,1.1c-0.4,0.4-0.9,0.8-1.3,1.4c-0.2,0.3-0.5,0.5-0.7,0.8
			c-0.2,0.3-0.5,0.6-0.7,0.9c-0.5,0.6-0.9,1.2-1.3,1.8c-0.4,0.6-0.7,1.1-1.1,1.6c-0.3,0.5-0.6,0.9-0.8,1.2c-0.2,0.3-0.3,0.4-0.3,0.4
			s0-0.2,0.1-0.5c0.1-0.3,0.2-0.8,0.4-1.3c0.2-0.5,0.5-1.2,0.8-1.8c0.3-0.7,0.8-1.3,1.2-1.9c0.5-0.6,1-1.2,1.5-1.7
			c0.3-0.3,0.6-0.5,0.8-0.7c0.3-0.2,0.5-0.4,0.8-0.5c0.5-0.3,1-0.5,1.3-0.5C82.4,5.7,82.6,5.7,82.6,5.7z"/>
		<path fill="#010101" d="M89,14.9c0,0-0.7,0.2-1.7,0.6c-0.5,0.2-1.1,0.4-1.7,0.7c-0.6,0.3-1.3,0.6-1.9,0.9c-0.6,0.3-1.2,0.7-1.8,1
			c-0.6,0.4-1.1,0.7-1.5,1c-0.2,0.2-0.4,0.3-0.6,0.4c-0.2,0.1-0.3,0.3-0.5,0.3c-0.3,0.2-0.4,0.3-0.4,0.3s0.1-0.2,0.3-0.4
			c0.2-0.3,0.4-0.7,0.8-1.1c0.2-0.2,0.4-0.4,0.6-0.7c0.2-0.2,0.5-0.5,0.8-0.7c0.3-0.2,0.6-0.4,0.9-0.6c0.3-0.2,0.6-0.4,1-0.6
			c1.3-0.7,2.8-1.1,3.9-1.3C88.2,14.8,89,14.9,89,14.9z"/>
		<path fill="#010101" d="M109.9,25.3c0,0-0.3-0.5-0.7-1.3c-0.2-0.4-0.5-0.8-0.7-1.2c-0.3-0.4-0.6-0.9-1-1.3
			c-0.3-0.4-0.7-0.8-1.1-1.2c-0.4-0.4-0.7-0.7-1.1-0.9c-0.3-0.3-0.6-0.5-0.8-0.6c-0.2-0.1-0.3-0.2-0.3-0.2s0.1,0,0.4,0.1
			c0.3,0,0.6,0.1,1.1,0.3c0.2,0.1,0.4,0.2,0.7,0.3c0.2,0.1,0.5,0.3,0.7,0.4c0.5,0.3,0.9,0.8,1.3,1.2c0.2,0.2,0.4,0.5,0.5,0.7
			c0.2,0.3,0.3,0.5,0.4,0.8c0.2,0.5,0.4,1,0.5,1.5C110,24.7,109.9,25.3,109.9,25.3z"/>
		<path fill="#010101" d="M113.5,16.1c0,0,0.9,0,2.1,0.4c0.6,0.2,1.3,0.5,2,0.9c0.4,0.2,0.7,0.4,1,0.7c0.3,0.3,0.6,0.6,1,0.9
			c0.2,0.4,0.6,0.7,0.7,1.1c0.2,0.4,0.4,0.8,0.5,1.2c0.1,0.2,0.1,0.4,0.2,0.6c0,0.2,0,0.4,0,0.6c0,0.2,0,0.4,0,0.6
			c0,0.2-0.1,0.3-0.1,0.5c-0.1,0.3-0.1,0.6-0.2,0.9c-0.1,0.2-0.2,0.5-0.2,0.6c-0.1,0.3-0.2,0.5-0.2,0.5s0-0.2,0-0.6
			c0-0.2,0-0.4,0.1-0.6c0-0.2,0-0.5,0-0.8c0-0.1,0-0.3,0-0.5c0-0.2-0.1-0.3-0.1-0.5c0-0.2-0.1-0.3-0.1-0.5c-0.1-0.2-0.1-0.3-0.2-0.5
			c-0.1-0.2-0.1-0.3-0.2-0.5c-0.1-0.2-0.2-0.3-0.3-0.5c-0.2-0.3-0.5-0.6-0.7-0.9c-0.3-0.3-0.5-0.6-0.8-0.8c-0.3-0.2-0.6-0.5-0.9-0.7
			c-0.6-0.4-1.2-0.8-1.8-1.1C114.2,16.5,113.5,16.1,113.5,16.1z"/>
		<path fill="#010101" d="M133.5,31c0,0-0.5-0.3-1.2-0.7c-0.7-0.5-1.6-1.1-2.4-1.8c-0.8-0.7-1.7-1.4-2.3-1.9c-0.6-0.6-1-1-1-1
			s0.6,0.2,1.3,0.5c0.8,0.4,1.7,0.9,2.6,1.6c0.9,0.7,1.7,1.5,2.2,2.1C133.2,30.5,133.5,31,133.5,31z"/>
		<path fill="#010101" d="M86.6,25.6c0,0-0.5,0.1-1.2,0.2c-0.7,0.1-1.6,0.1-2.5,0.2c-0.9,0-1.8,0-2.5,0c-0.3,0-0.6,0-0.8,0
			c-0.2,0-0.3,0-0.3,0s0.1-0.1,0.3-0.2c0.2-0.1,0.5-0.3,0.8-0.4c0.7-0.3,1.7-0.4,2.6-0.4c1,0,1.9,0.1,2.6,0.3
			C86.1,25.4,86.6,25.6,86.6,25.6z"/>
		<path fill="#010101" d="M87.5,29.5c0,0-0.1,0.4-0.3,0.8c-0.2,0.4-0.6,0.9-1.2,1.3c-0.3,0.2-0.5,0.4-0.8,0.5
			c-0.3,0.1-0.5,0.2-0.8,0.3c-0.5,0.1-0.8,0.1-0.8,0.1s0.1-0.1,0.2-0.2c0.1-0.1,0.2-0.2,0.4-0.4c0.3-0.3,0.8-0.7,1.2-1.1
			c0.5-0.4,0.9-0.7,1.3-0.9C87.2,29.6,87.5,29.5,87.5,29.5z"/>
	</g>
	<g>
		<linearGradient id="SVGID_1_" gradientUnits="userSpaceOnUse" x1="67.3841" y1="33.3181" x2="67.3841" y2="-7.639755e-11">
			<stop  offset="0" style="stop-color:#90815F"/>
			<stop  offset="1" style="stop-color:#A2916A"/>
		</linearGradient>
		<path fill="url(#SVGID_1_)" d="M133,25.1c0.8,0.2,1.1-2.3,1.1-2.3c-6.6,2.3-8.9-3.5-8.9-3.5c3.1-1.9,2.4-5.5,2.4-5.5
			c-7.6,1.5-17.2-2.4-17.2-2.4c1.3-0.5,1.1-1.5,1.1-1.5c-9.1-1.4-15.8,3.9-15.8,3.9c0.8-1.3,0-2.3,0-2.3c-2-0.8-5.3,1.3-5.3,1.3
			c-0.6-1.6-2.1-1.6-2.1-1.6c1.6-3.1-1.7-4.2-1.7-4.2c-1-7.6-8.3-3.6-8.3-3.6s0.3-1.7-1-2.7c-3-1.7-4.6,1.4-4.6,1.4
			c-1.3-3.2-5.3-2-5.3-2s-4-1.2-5.3,2c0,0-1.7-3.1-4.6-1.4c-1.3,1-1,2.7-1,2.7s-7.3-3.9-8.3,3.6c0,0-3.3,1.2-1.7,4.2
			c0,0-1.5,0-2.1,1.6c0,0-3.3-2.1-5.3-1.3c0,0-0.8,1,0,2.3c0,0-6.7-5.3-15.8-3.9c0,0-0.2,1,1.1,1.5c0,0-9.7,3.8-17.2,2.4
			c0,0-0.7,3.6,2.4,5.5c0,0-2.3,5.8-8.9,3.5c0,0,0.3,2.5,1.1,2.3c0,0-1.6,1.1-1.8,4.8c0,0,5.7,1.7,9-2.7c0,0,2,4.5,9.6,4.5
			c5.3,0,4.5-3.7,4.5-3.7s-0.2-2.7-3-2.5c0,0-1.8,0-2.3,1.6c0,0-4.6-7.1,2.6-11.3c0,0-3.8,4.6-0.9,7.5c0,0,1.8,0,2.7-1.9
			c0,0-0.8,3.3,1.9,5c0,0,5.5-2.2,7.4-7c0,0,1.7-3.1,8.2-0.2c0,0-11.2,2.2-9.2,9.3c1,3.6,4.3,2.7,4.3,2.7s3.5-0.7,2.1-3.5
			c0,0-0.5-1.7-3.2-1.2c0,0,2.6-4,7.2-0.8s6.2,7.5,15.2,7.5s9.9-3.6,9.9-3.6l1.5,0.8l1.5-0.8c0,0,0.9,3.6,9.9,3.6s10.5-4.2,15.2-7.5
			s7.2,0.8,7.2,0.8c-2.6-0.5-3.2,1.2-3.2,1.2c-1.5,2.8,2.1,3.5,2.1,3.5s3.3,0.9,4.3-2.7c2.1-7.1-9.2-9.3-9.2-9.3
			c6.5-2.9,8.2,0.2,8.2,0.2c1.9,4.8,7.4,7,7.4,7c2.7-1.8,1.9-5,1.9-5c0.9,1.9,2.7,1.9,2.7,1.9c2.9-2.9-0.9-7.5-0.9-7.5
			c7.2,4.2,2.6,11.3,2.6,11.3c-0.4-1.6-2.3-1.6-2.3-1.6c-2.7-0.2-3,2.5-3,2.5s-0.8,3.7,4.5,3.7c7.6,0,9.6-4.5,9.6-4.5
			c3.3,4.3,9,2.7,9,2.7C134.6,26.2,133,25.1,133,25.1z"/>
		<g>
			<path fill="#CEAF70" d="M63,18.6C59.1,5.8,56.4,3.5,56.4,3.5s-7.3-3.9-8.3,3.6C55.8,10.3,63,18.6,63,18.6z"/>
			<path fill="#CEAF70" d="M46.4,18.3c0,0,8.5-2,11.7,3.3c0,0,0.1-8.3-11.6-10.2c0,0-1.5,0-2.1,1.6C44.4,12.9,43.1,16.3,46.4,18.3z"
				/>
			<path fill="#CEAF70" d="M71.8,18.6c0,0,7.2-8.3,14.8-11.5c-1-7.6-8.3-3.6-8.3-3.6S75.6,5.8,71.8,18.6z"/>
			<path fill="#CEAF70" d="M76.7,21.6c3.2-5.3,11.7-3.3,11.7-3.3c3.3-2,2-5.4,2-5.4c-0.6-1.6-2.1-1.6-2.1-1.6
				C76.5,13.3,76.7,21.6,76.7,21.6z"/>
			<path fill="#CEAF70" d="M72.7,2.2c-1.3-3.2-5.3-2-5.3-2s-4-1.2-5.3,2c0,0,4,7.7,5.3,23.5C68.7,9.9,72.7,2.2,72.7,2.2z"/>
			<circle fill="#CEAF70" cx="67.4" cy="30.5" r="2.4"/>
			<path fill="#CEAF70" d="M9.2,22.6c0,0-8.2,1.9-9.2,7.3C0,30,9,31.2,9.2,22.6z"/>
			<path fill="#CEAF70" d="M30.2,13.5c0,0-15.7-3.7-17.7,7.3c0,0-1,5.5,4.5,4.8C17,25.6,10.1,14.3,30.2,13.5z"/>
			<path fill="#CEAF70" d="M10.6,22.1c0,0-1.6,7.8,6.4,7.9C17,30,10.7,28,10.6,22.1z"/>
			<path fill="#CEAF70" d="M31.7,15.5c0,0-10.8-0.4-7.4,9.7C24.3,25.1,30.9,22.4,31.7,15.5z"/>
			<path fill="#CEAF70" d="M35.6,14.1c0,0-3.7-5.3-12.2-4.1C23.3,10,32.9,11.7,35.6,14.1z"/>
			<path fill="#CEAF70" d="M58.1,2c0,0,3-2,4.9,11.5C63,13.5,59.2,2.6,58.1,2z"/>
			<circle fill="#CEAF70" cx="60.6" cy="23.3" r="2.1"/>
			<path fill="#CEAF70" d="M51.7,27.4c0,0,9.7,10.3,13.4-2.3C65,25.1,61.1,32.7,51.7,27.4z"/>
			<path fill="#CEAF70" d="M46.6,24.1c0,0,6.1-4.7,10.1,0C56.7,24.1,53.2,26.8,46.6,24.1z"/>
			<path fill="#CEAF70" d="M45.3,25.4c0,0,1,5.8,8.7,6.6C54,31.9,49.9,27.3,45.3,25.4z"/>
			<path fill="#CEAF70" d="M32.9,24.5c0,0-5.1,6,3,4.9C35.8,29.4,29.8,29.1,32.9,24.5z"/>
			<path fill="#CEAF70" d="M125.6,22.6c0,0,8.2,1.9,9.2,7.3C134.8,30,125.7,31.2,125.6,22.6z"/>
			<path fill="#CEAF70" d="M104.6,13.5c0,0,15.7-3.7,17.7,7.3c0,0,1,5.5-4.5,4.8C117.7,25.6,124.7,14.3,104.6,13.5z"/>
			<path fill="#CEAF70" d="M124.2,22.1c0,0,1.6,7.8-6.4,7.9C117.7,30,124.1,28,124.2,22.1z"/>
			<path fill="#CEAF70" d="M103.1,15.5c0,0,10.8-0.4,7.4,9.7C110.5,25.1,103.9,22.4,103.1,15.5z"/>
			<path fill="#CEAF70" d="M99.2,14.1c0,0,3.7-5.3,12.2-4.1C111.4,10,101.8,11.7,99.2,14.1z"/>
			<path fill="#CEAF70" d="M76.7,2c0,0-3-2-4.9,11.5C71.8,13.5,75.6,2.6,76.7,2z"/>
			<circle fill="#CEAF70" cx="74.2" cy="23.3" r="2.1"/>
			<path fill="#CEAF70" d="M83.1,27.4c0,0-9.7,10.3-13.4-2.3C69.7,25.1,73.7,32.7,83.1,27.4z"/>
			<path fill="#CEAF70" d="M88.2,24.1c0,0-6.1-4.7-10.1,0C78,24.1,81.6,26.8,88.2,24.1z"/>
			<path fill="#CEAF70" d="M89.5,25.4c0,0-1,5.8-8.7,6.6C80.8,31.9,84.8,27.3,89.5,25.4z"/>
			<path fill="#CEAF70" d="M101.9,24.5c0,0,5.1,6-3,4.9C99,29.4,104.9,29.1,101.9,24.5z"/>
		</g>
		<g>
			<path fill="#FFF0D6" d="M52.2,3.7c0,0,0.2,0,0.5,0.1C53,3.9,53.5,4.1,54,4.4c0.3,0.1,0.5,0.3,0.8,0.5c0.3,0.2,0.6,0.4,0.8,0.7
				c0.6,0.5,1.1,1.1,1.5,1.7c0.5,0.6,0.9,1.3,1.2,1.9c0.4,0.6,0.6,1.3,0.8,1.8c0.2,0.5,0.3,1,0.4,1.3c0.1,0.3,0.1,0.5,0.1,0.5
				s-0.1-0.2-0.3-0.4c-0.2-0.3-0.5-0.7-0.8-1.2c-0.3-0.5-0.7-1-1.1-1.6c-0.4-0.6-0.8-1.2-1.3-1.8c-0.2-0.3-0.4-0.6-0.7-0.9
				c-0.2-0.3-0.5-0.6-0.7-0.8c-0.5-0.5-0.9-1-1.3-1.4C52.9,4.1,52.2,3.7,52.2,3.7z"/>
		</g>
		<g>
			<path fill="#FFF0D6" d="M67.4,0.9c0,0,0,0.2,0.1,0.7c0,0.4,0.1,1,0.2,1.8c0.1,1.5,0.2,3.5,0.2,5.4c0,2-0.1,3.9-0.2,5.4
				c-0.1,0.7-0.1,1.4-0.2,1.8c-0.1,0.4-0.1,0.7-0.1,0.7s0-0.2-0.1-0.7c0-0.4-0.1-1-0.2-1.8c-0.1-1.5-0.2-3.5-0.2-5.4
				c0-2,0.1-3.9,0.2-5.4c0.1-0.7,0.1-1.4,0.2-1.8C67.3,1.1,67.4,0.9,67.4,0.9z"/>
		</g>
		<g>
			<path fill="#FFF0D6" d="M45.8,12.9c0,0,0.8-0.1,1.9,0c1.1,0.1,2.6,0.6,3.9,1.3c0.3,0.2,0.7,0.4,1,0.6c0.3,0.2,0.6,0.4,0.9,0.6
				c0.3,0.2,0.5,0.5,0.8,0.7c0.2,0.2,0.4,0.4,0.6,0.7c0.4,0.4,0.7,0.8,0.8,1.1c0.2,0.3,0.3,0.4,0.3,0.4s-0.2-0.1-0.4-0.3
				c-0.1-0.1-0.3-0.2-0.5-0.3c-0.2-0.1-0.4-0.3-0.6-0.4c-0.4-0.3-1-0.7-1.5-1c-0.6-0.3-1.2-0.7-1.8-1c-0.6-0.3-1.3-0.6-1.9-0.9
				c-0.6-0.3-1.2-0.5-1.7-0.7C46.5,13.1,45.8,12.9,45.8,12.9z"/>
		</g>
		<g>
			<path fill="#FFF0D6" d="M24.8,23.3c0,0-0.1-0.6,0.1-1.5c0.1-0.4,0.3-0.9,0.5-1.5c0.1-0.3,0.3-0.5,0.4-0.8
				c0.2-0.2,0.3-0.5,0.5-0.7c0.4-0.5,0.8-0.9,1.3-1.2c0.2-0.2,0.5-0.3,0.7-0.4c0.2-0.1,0.5-0.2,0.7-0.3c0.4-0.2,0.8-0.3,1.1-0.3
				c0.3,0,0.4-0.1,0.4-0.1s-0.1,0.1-0.3,0.2c-0.2,0.1-0.5,0.3-0.8,0.6c-0.3,0.2-0.7,0.6-1.1,0.9c-0.4,0.4-0.8,0.8-1.1,1.2
				c-0.4,0.4-0.7,0.9-1,1.3c-0.3,0.4-0.5,0.9-0.7,1.2C25.1,22.8,24.8,23.3,24.8,23.3z"/>
		</g>
		<g>
			<path fill="#FFF0D6" d="M21.3,14.1c0,0-0.8,0.3-1.9,0.9c-0.5,0.3-1.1,0.7-1.8,1.1c-0.3,0.2-0.6,0.5-0.9,0.7
				c-0.3,0.2-0.5,0.5-0.8,0.8c-0.2,0.3-0.5,0.6-0.7,0.9c-0.1,0.2-0.2,0.3-0.3,0.5c-0.1,0.2-0.1,0.3-0.2,0.5
				c-0.1,0.2-0.1,0.3-0.2,0.5c0,0.2-0.1,0.3-0.1,0.5c0,0.2-0.1,0.3-0.1,0.5c0,0.2,0,0.3,0,0.5c0,0.3-0.1,0.6,0,0.8
				c0,0.2,0,0.5,0.1,0.6c0,0.4,0,0.6,0,0.6s-0.1-0.2-0.2-0.5c-0.1-0.2-0.1-0.4-0.2-0.6c-0.1-0.2-0.1-0.5-0.2-0.9
				c0-0.2,0-0.3-0.1-0.5c0-0.2,0-0.4,0-0.6c0-0.2,0-0.4,0-0.6c0-0.2,0.1-0.4,0.2-0.6c0.1-0.4,0.3-0.8,0.5-1.2
				c0.2-0.4,0.5-0.7,0.7-1.1c0.3-0.3,0.6-0.6,1-0.9c0.3-0.3,0.7-0.5,1-0.7c0.7-0.4,1.4-0.7,2-0.9C20.5,14.1,21.3,14.1,21.3,14.1z"/>
		</g>
		<g>
			<path fill="#FFF0D6" d="M1.3,29c0,0,0.3-0.5,0.8-1.2c0.5-0.7,1.3-1.4,2.2-2.1c0.9-0.7,1.8-1.3,2.6-1.6c0.7-0.4,1.3-0.5,1.3-0.5
				s-0.4,0.4-1,1c-0.6,0.6-1.4,1.3-2.3,1.9c-0.9,0.7-1.7,1.3-2.4,1.8C1.8,28.8,1.3,29,1.3,29z"/>
		</g>
		<g>
			<path fill="#FFF0D6" d="M48.2,23.6c0,0,0.5-0.2,1.2-0.4C50,23.1,51,23,51.9,23c1,0,1.9,0.2,2.6,0.4c0.3,0.1,0.6,0.3,0.8,0.4
				c0.2,0.1,0.3,0.2,0.3,0.2s-0.1,0-0.3,0c-0.2,0-0.5,0-0.8,0c-0.7,0-1.6,0-2.5,0c-0.9,0-1.8-0.1-2.5-0.2
				C48.7,23.7,48.2,23.6,48.2,23.6z"/>
		</g>
		<g>
			<path fill="#FFF0D6" d="M47.3,27.5c0,0,0.3,0.1,0.7,0.4c0.4,0.2,0.9,0.6,1.3,0.9c0.5,0.4,0.9,0.7,1.2,1.1
				c0.2,0.2,0.3,0.3,0.4,0.4c0.1,0.1,0.2,0.2,0.2,0.2s-0.4,0-0.8-0.1c-0.2,0-0.5-0.1-0.8-0.3c-0.3-0.1-0.5-0.3-0.8-0.5
				c-0.5-0.4-0.9-0.9-1.2-1.3C47.3,27.8,47.3,27.5,47.3,27.5z"/>
		</g>
		<g>
			<path fill="#FFF0D6" d="M82.6,3.7c0,0-0.7,0.3-1.5,1.1c-0.4,0.4-0.9,0.8-1.3,1.4c-0.2,0.3-0.5,0.5-0.7,0.8
				c-0.2,0.3-0.5,0.6-0.7,0.9c-0.5,0.6-0.9,1.2-1.3,1.8c-0.4,0.6-0.7,1.1-1.1,1.6c-0.3,0.5-0.6,0.9-0.8,1.2
				c-0.2,0.3-0.3,0.4-0.3,0.4s0-0.2,0.1-0.5c0.1-0.3,0.2-0.8,0.4-1.3c0.2-0.5,0.5-1.2,0.8-1.8c0.3-0.7,0.8-1.3,1.2-1.9
				c0.5-0.6,1-1.2,1.5-1.7c0.3-0.3,0.6-0.5,0.8-0.7c0.3-0.2,0.5-0.4,0.8-0.5c0.5-0.3,1-0.5,1.3-0.5C82.4,3.7,82.6,3.7,82.6,3.7z"/>
		</g>
		<g>
			<path fill="#FFF0D6" d="M89,12.9c0,0-0.7,0.2-1.7,0.6c-0.5,0.2-1.1,0.4-1.7,0.7c-0.6,0.3-1.3,0.6-1.9,0.9c-0.6,0.3-1.2,0.7-1.8,1
				c-0.6,0.4-1.1,0.7-1.5,1c-0.2,0.2-0.4,0.3-0.6,0.4c-0.2,0.1-0.3,0.3-0.5,0.3c-0.3,0.2-0.4,0.3-0.4,0.3s0.1-0.2,0.3-0.4
				c0.2-0.3,0.4-0.7,0.8-1.1c0.2-0.2,0.4-0.4,0.6-0.7c0.2-0.2,0.5-0.5,0.8-0.7c0.3-0.2,0.6-0.4,0.9-0.6c0.3-0.2,0.6-0.4,1-0.6
				c1.3-0.7,2.8-1.1,3.9-1.3C88.2,12.8,89,12.9,89,12.9z"/>
		</g>
		<g>
			<path fill="#FFF0D6" d="M109.9,23.3c0,0-0.3-0.5-0.7-1.3c-0.2-0.4-0.5-0.8-0.7-1.2c-0.3-0.4-0.6-0.9-1-1.3
				c-0.3-0.4-0.7-0.8-1.1-1.2c-0.4-0.4-0.7-0.7-1.1-0.9c-0.3-0.3-0.6-0.5-0.8-0.6c-0.2-0.1-0.3-0.2-0.3-0.2s0.1,0,0.4,0.1
				c0.3,0,0.6,0.1,1.1,0.3c0.2,0.1,0.4,0.2,0.7,0.3c0.2,0.1,0.5,0.3,0.7,0.4c0.5,0.3,0.9,0.8,1.3,1.2c0.2,0.2,0.4,0.5,0.5,0.7
				c0.2,0.3,0.3,0.5,0.4,0.8c0.2,0.5,0.4,1,0.5,1.5C110,22.7,109.9,23.3,109.9,23.3z"/>
		</g>
		<g>
			<path fill="#FFF0D6" d="M113.5,14.1c0,0,0.9,0,2.1,0.4c0.6,0.2,1.3,0.5,2,0.9c0.4,0.2,0.7,0.4,1,0.7c0.3,0.3,0.6,0.6,1,0.9
				c0.2,0.4,0.6,0.7,0.7,1.1c0.2,0.4,0.4,0.8,0.5,1.2c0.1,0.2,0.1,0.4,0.2,0.6c0,0.2,0,0.4,0,0.6c0,0.2,0,0.4,0,0.6
				c0,0.2-0.1,0.3-0.1,0.5c-0.1,0.3-0.1,0.6-0.2,0.9c-0.1,0.2-0.2,0.5-0.2,0.6c-0.1,0.3-0.2,0.5-0.2,0.5s0-0.2,0-0.6
				c0-0.2,0-0.4,0.1-0.6c0-0.2,0-0.5,0-0.8c0-0.1,0-0.3,0-0.5c0-0.2-0.1-0.3-0.1-0.5c0-0.2-0.1-0.3-0.1-0.5
				c-0.1-0.2-0.1-0.3-0.2-0.5c-0.1-0.2-0.1-0.3-0.2-0.5c-0.1-0.2-0.2-0.3-0.3-0.5c-0.2-0.3-0.5-0.6-0.7-0.9
				c-0.3-0.3-0.5-0.6-0.8-0.8c-0.3-0.2-0.6-0.5-0.9-0.7c-0.6-0.4-1.2-0.8-1.8-1.1C114.2,14.5,113.5,14.1,113.5,14.1z"/>
		</g>
		<g>
			<path fill="#FFF0D6" d="M133.5,29c0,0-0.5-0.3-1.2-0.7c-0.7-0.5-1.6-1.1-2.4-1.8c-0.8-0.7-1.7-1.4-2.3-1.9c-0.6-0.6-1-1-1-1
				s0.6,0.2,1.3,0.5c0.8,0.4,1.7,0.9,2.6,1.6c0.9,0.7,1.7,1.5,2.2,2.1C133.2,28.5,133.5,29,133.5,29z"/>
		</g>
		<g>
			<path fill="#FFF0D6" d="M86.6,23.6c0,0-0.5,0.1-1.2,0.2c-0.7,0.1-1.6,0.1-2.5,0.2c-0.9,0-1.8,0-2.5,0c-0.3,0-0.6,0-0.8,0
				c-0.2,0-0.3,0-0.3,0s0.1-0.1,0.3-0.2c0.2-0.1,0.5-0.3,0.8-0.4c0.7-0.3,1.7-0.4,2.6-0.4c1,0,1.9,0.1,2.6,0.3
				C86.1,23.4,86.6,23.6,86.6,23.6z"/>
		</g>
		<g>
			<path fill="#FFF0D6" d="M87.5,27.5c0,0-0.1,0.4-0.3,0.8c-0.2,0.4-0.6,0.9-1.2,1.3c-0.3,0.2-0.5,0.4-0.8,0.5
				c-0.3,0.1-0.5,0.2-0.8,0.3c-0.5,0.1-0.8,0.1-0.8,0.1s0.1-0.1,0.2-0.2c0.1-0.1,0.2-0.2,0.4-0.4c0.3-0.3,0.8-0.7,1.2-1.1
				c0.5-0.4,0.9-0.7,1.3-0.9C87.2,27.6,87.5,27.5,87.5,27.5z"/>
		</g>
	</g>
</g>
</svg>
