<!-- Generator: Adobe Illustrator 19.1.0, SVG Export Plug-In  -->
<svg version="1.1"
	 xmlns="http://www.w3.org/2000/svg" xmlns:xlink="http://www.w3.org/1999/xlink" xmlns:a="http://ns.adobe.com/AdobeSVGViewerExtensions/3.0/"
	 x="0px" y="0px" width="128px" height="284.9px" viewBox="0 0 128 284.9" enable-background="new 0 0 128 284.9"
	 xml:space="preserve">
<defs>
</defs>
<g opacity="0.75">
	<path fill="#FFFFFF" d="M41,56.5C28.7,52.4,22,39,26.2,26.6S43.7,7.7,56,11.8C68.4,16,75,29.4,70.9,41.7C66.7,54,53.3,60.7,41,56.5
		z M55.6,13.1c-11.6-3.9-24.3,2.4-28.2,14s2.4,24.3,14,28.2s24.3-2.4,28.2-14S67.2,17,55.6,13.1z"/>
</g>
<g opacity="0.5">
	<path fill="#FFFFFF" d="M39.4,61.3c-15-5-23-21.3-18-36.2s21.3-23,36.2-18s23,21.3,18,36.2C70.6,58.2,54.3,66.3,39.4,61.3z
		 M57.2,8.3C43,3.5,27.5,11.2,22.7,25.5C17.9,39.7,25.6,55.2,39.8,60s29.8-2.9,34.6-17.2C79.2,28.6,71.5,13.1,57.2,8.3z"/>
</g>
<g opacity="0.25">
	<path fill="#FFFFFF" d="M37.6,66.6c-17.9-6-27.5-25.4-21.5-43.3S41.6-4.2,59.4,1.8c17.9,6,27.5,25.4,21.5,43.3S55.5,72.6,37.6,66.6
		z M59,3C41.8-2.7,23.2,6.5,17.4,23.7S20.9,59.5,38,65.3s35.8-3.5,41.6-20.7S76.2,8.8,59,3z"/>
</g>
<g>
	<g>
		<path fill="#FFFFFF" d="M46.2,281.4c-24.3-8.2-25.4-30.6-25.4-30.8l0-0.3l0.1-0.3c5.3-14.3,4.1-28.2,3.8-30.3
			C11.9,201.2,5,176.8,4.1,173.8c-5.6-9.5-1.2-22.9-0.2-25.8c-1.4-6.3,0.8-23.1,1.3-26.9c-2.4-3.8-6.1-13.6-4.3-19.8
			c0.7-2.5,2.2-4.2,4.5-5.1c2.6-0.9,5.2-0.9,7.9-0.1c3.2,1.1,6.4,3.5,9.4,7.2c1.9,2.3,3.5,4.7,4.6,6.6c0.6-3.9,0.9-8.3,0.9-8.5
			c0-0.3-0.4-29.7,1.9-36.6c2.1-6.2,3.7-19,3.8-19.5c0.1-0.7,3.4-16.9,10.7-21.2c2-1.2,4.1-1.4,6.3-0.6c10.7,3.6,8.9,14.7,7.5,22.7
			c-0.1,0.6-0.2,1.2-0.3,1.8c-1.1,7-2.4,13.4-2.7,14.8c1.4,7.3,0.9,17.2,0.6,25.1c-0.2,3.9-0.3,7.2-0.2,9.2c0.1,1.5,0.6,3.4,2.2,4.4
			c0.2,0.1,0.5,0.2,0.8,0.3c2,0.7,5,0.1,8.6-1.6c2.8-1.4,5.6-1.6,8.4-0.7c4.6,1.5,7.3,5.8,7.3,5.9c1.2,2.3,3.9,6.3,6.5,7.2
			c0.8,0.3,1.5,0.2,2.2,0c2.1-0.9,4.6-0.9,7.1-0.1c0.9,0.3,1.8,0.7,2.7,1.2c3.1,1.9,5.3,4.7,5.6,7.2c0.1,1.2,3,2.9,7.2,4.3
			c1.3,0.4,2.5,0.8,3.8,1.1c0,0,0,0,0,0c4.8,1.6,7.9,8,9.1,18.8c0.8,7.4,0.5,14.5,0.5,15.2l0,0.2c-0.5,2.2-4.5,21.4-5.3,28.9
			c-0.9,8-11.2,24.5-12.4,26.4c-10.4,24.9-4.6,50.3-4.6,50.6l0.1,0.2l0,0.2c-1.5,16.1-35.6,17.3-37.1,17.3
			C59.8,284.5,52.5,283.6,46.2,281.4L46.2,281.4z M23.7,250.8c0.2,2.5,2.2,20.7,23.1,27.8c0,0,0,0,0,0c6,2,13.1,3,21.1,2.8
			c0.3,0,32.6-1.1,34.1-14.4c-0.7-3.1-5.4-27.9,4.8-52.3l0.1-0.2c0.1-0.2,11.1-17.8,12-25.3c0.9-7.7,4.9-26.9,5.4-29
			c0.6-10.7-1-28.7-7.4-30.9c-0.6-0.1-2.2-0.5-4.1-1.2c-4-1.3-8.7-3.6-9.1-6.8c-0.2-1.5-1.9-3.6-4.1-4.9c-0.7-0.4-1.4-0.7-2.1-1
			c-1.8-0.6-3.5-0.6-4.9,0c-1.4,0.6-2.8,0.6-4.3,0.1c-4.7-1.6-8.1-8.4-8.2-8.6c-0.2-0.3-2.2-3.3-5.5-4.5c-2-0.7-4.1-0.5-6.2,0.5
			c-4.3,2.1-8,2.7-10.8,1.7c-0.5-0.2-0.9-0.4-1.3-0.6c-2.2-1.3-3.5-3.6-3.7-6.8c-0.1-2.1,0-5.6,0.2-9.5c0.4-7.9,0.8-17.8-0.6-24.7
			l-0.1-0.3l0.1-0.3c0.2-0.8,1.6-7.5,2.8-15c0.1-0.5,0.2-1,0.3-1.6l0-0.2c1.3-7.8,2.8-16.6-5.5-19.4c-1.3-0.4-2.6-0.3-3.8,0.4
			c-6.1,3.5-9.2,18.9-9.3,19.1c0,0.1-1.6,13.3-3.9,20c-2.1,6.1-1.7,35.4-1.7,35.7c0,0.1-0.4,8.9-1.9,13.2l-1.2,3.6l-1.6-3.5
			c-0.1-0.1-6-13.1-14.1-15.9c-2-0.7-3.9-0.7-5.8,0c-1.3,0.5-2.2,1.5-2.6,3.1c-1.6,5.4,2.3,15,4.2,17.7l0.3,0.5l-0.1,0.6
			c0,0.2-3,20.9-1.3,26.7l0.1,0.5l-0.2,0.5c-0.1,0.1-5.6,14.7-0.1,23.8l0.1,0.3c0.1,0.3,7.2,26.6,20.4,45.6l0.2,0.3l0,0.4
			C27.7,219.6,29.6,234.6,23.7,250.8z"/>
		<path fill="#FFFFFF" d="M50.6,24c10.3,3.5,8.5,14.3,7.2,22.2c-0.1,0.6-0.2,1.2-0.3,1.8c-1.2,7.2-2.5,13.7-2.7,14.9
			c1.4,7.2,1,17.1,0.6,25.1c-0.2,3.9-0.3,7.3-0.2,9.3c0.1,1.6,0.6,3.7,2.4,4.8c0.3,0.2,0.5,0.3,0.8,0.4c2.1,0.7,5.3,0.2,8.9-1.6
			c3.1-1.5,5.8-1.4,8-0.6c4.4,1.5,7,5.6,7,5.6c0.1,0.1,3.2,6.2,6.8,7.4c0.8,0.3,1.7,0.3,2.5-0.1c2-0.9,4.4-0.9,6.7-0.1
			c0.9,0.3,1.7,0.7,2.6,1.2c3,1.8,5.1,4.4,5.4,6.8c0.2,1.7,3.8,3.5,7.6,4.8c1.3,0.4,2.6,0.8,3.8,1.1c0,0,0,0,0,0
			c4.6,1.6,7.5,7.7,8.7,18.4c0.9,7.7,0.5,15.1,0.5,15.2l0,0.2c0,0.2-4.4,21.1-5.3,28.9c-0.9,7.9-11.4,24.8-12.3,26.2
			c-10.4,25-4.7,50.7-4.6,51l0,0.2l0,0.2c-1.4,15.7-35.2,16.8-36.6,16.9c-8.8,0.2-15.9-0.9-21.7-2.9c-23.9-8-25.1-30.1-25.1-30.4
			l0-0.2l0.1-0.2c5.4-14.6,4.1-28.7,3.9-30.7c-13-18.7-20-43.8-20.6-45.9c-5.6-9.6-1-23.3-0.1-25.6C3,141.7,5.4,123.9,5.8,121
			c-2.1-3.3-6.2-13.2-4.3-19.6c0.7-2.3,2.1-3.9,4.2-4.7c2.5-0.9,5-0.9,7.5-0.1c3.1,1,6.2,3.4,9.2,7c2.3,2.8,4.1,5.8,5.2,7.8
			c0.8-4.2,1.1-9.9,1.1-10c0-1.2-0.4-29.9,1.8-36.4c2.1-6.3,3.8-19.5,3.8-19.6c0.1-0.7,3.4-16.7,10.5-20.8
			C46.6,23.5,48.6,23.3,50.6,24 M28,117l-1-2.3c-0.1-0.2-6.1-13.4-14.4-16.2c-1.9-0.7-4-0.7-6.2,0c-1.5,0.6-2.4,1.7-2.9,3.4
			c-1.6,5.6,2.3,15.4,4.3,18.2l0.2,0.3l-0.1,0.4c0,0.2-3,21-1.3,26.9l0.1,0.3l-0.1,0.3c-0.1,0.1-5.7,14.9-0.1,24.3l0.1,0.3
			c0.1,0.3,7.1,26.5,20.4,45.6l0.1,0.2l0,0.2c0.1,0.6,2,15.6-3.9,31.7c0.1,2.3,2,21.1,23.5,28.3c5.6,1.9,12.6,3,21.3,2.8
			c0.3,0,33.1-1.1,34.6-14.9c-0.5-2.3-5.5-27.5,4.8-52.1l0.1-0.1c0.1-0.2,11.2-17.8,12.1-25.4c0.9-7.7,5-27.4,5.4-29
			c0.4-8-0.2-28.9-7.7-31.5c-0.7-0.2-2.2-0.5-4.1-1.2c-3.7-1.2-8.4-3.4-8.7-6.4c-0.2-1.7-2-3.9-4.4-5.3c-0.7-0.4-1.5-0.8-2.2-1
			c-1.9-0.6-3.8-0.6-5.3,0c-1.4,0.6-2.7,0.5-3.9,0.1c-4.5-1.5-7.8-8-7.9-8.4c-0.1-0.2-2.2-3.5-5.8-4.7c-1.8-0.6-4.1-0.7-6.6,0.5
			c-4.2,2-7.8,2.6-10.4,1.7c-0.4-0.1-0.8-0.3-1.2-0.6c-2-1.2-3.2-3.4-3.4-6.4c-0.1-2.1,0-5.5,0.2-9.5c0.4-7.9,0.9-17.8-0.6-24.8
			l0-0.2l0-0.2c0-0.1,1.5-7.1,2.8-15c0.1-0.6,0.2-1.2,0.3-1.8c1.3-8,2.9-17-5.8-19.9c-1.5-0.5-2.9-0.4-4.2,0.4
			c-6.3,3.7-9.5,19.3-9.5,19.4c-0.1,0.5-1.7,13.4-3.9,19.9c-2.1,6.2-1.7,35.5-1.7,35.8c0,0.4-0.5,8.9-1.9,13.1L28,117 M50.9,23
			c-2.3-0.8-4.6-0.5-6.7,0.7c-7.6,4.4-10.8,20.8-11,21.5l0,0l0,0c0,0.1-1.7,13.3-3.8,19.4c-2.3,6.8-1.9,35.5-1.9,36.7
			c0,0.4-0.2,3.7-0.7,7c-1-1.7-2.3-3.6-3.9-5.5c-3.1-3.7-6.3-6.2-9.6-7.3c-2.7-0.9-5.5-0.9-8.2,0.1c-2.4,1-4,2.8-4.8,5.4
			c-1.9,6.3,1.8,16.1,4.2,20.1c-0.6,4.1-2.7,20.3-1.3,26.8c-1.2,3.2-5.3,16.5,0.2,26c0.9,3.3,7.8,27.5,20.5,45.9
			c0.2,2.5,1.3,16.1-3.8,30l-0.1,0.2l-0.1,0.2l0,0.2l0,0.2c0,0.2,1.1,23,25.8,31.3c6.3,2.1,13.8,3.1,22,2.9c1,0,9.7-0.3,18.5-2.6
			c12-3.1,18.4-8.2,19-15.2l0-0.2l0-0.2l0-0.2l0-0.2c-0.1-0.3-5.7-25.6,4.5-50.3c1.4-2.2,11.5-18.5,12.4-26.5
			c0.9-7.4,4.9-26.6,5.3-28.8l0,0l0-0.1l0-0.2l0,0l0,0c0-0.8,0.3-7.9-0.5-15.3c-1.2-11.2-4.3-17.5-9.4-19.2l0,0l-0.1,0
			c-1.2-0.3-2.5-0.6-3.7-1.1c-4.9-1.7-6.8-3.3-6.9-3.9c-0.3-2.7-2.6-5.6-5.8-7.6c-0.9-0.5-1.8-1-2.8-1.3c-2.6-0.9-5.2-0.9-7.4,0.1
			c-0.6,0.2-1.2,0.2-1.8,0c-2.5-0.8-5.1-4.8-6.2-6.9l0,0l0,0c0,0-2.8-4.5-7.6-6.1c-2.9-1-5.8-0.7-8.7,0.7c-3.4,1.6-6.3,2.2-8.2,1.6
			c-0.2-0.1-0.5-0.2-0.7-0.3c-1.4-0.8-1.8-2.6-1.9-4c-0.1-1.9,0-5.3,0.2-9.1c0.4-8,0.8-17.8-0.5-25.1c0.3-1.6,1.6-7.9,2.7-14.8
			c0.1-0.6,0.2-1.2,0.3-1.8C60.1,38.5,62.1,26.8,50.9,23L50.9,23z M37.3,45.9c0.9-4.3,4.1-15.9,9-18.7c1.1-0.6,2.2-0.8,3.4-0.4
			c7.9,2.7,6.5,10.9,5.2,18.8l0,0.2c-0.1,0.5-0.2,1.1-0.3,1.6c-1.2,7.4-2.6,14.2-2.8,14.9l0,0.2l0,0.2l0,0.2l0,0.2
			c1.4,6.9,0.9,16.7,0.6,24.5c-0.2,4-0.4,7.4-0.2,9.6c0.2,3.3,1.6,5.8,3.9,7.2c0.4,0.3,0.9,0.5,1.4,0.6c2.9,1,6.7,0.4,11.2-1.7
			c2-1,4-1.1,5.8-0.5c3,1,5,3.8,5.3,4.3c0.5,1,3.8,7.3,8.5,8.8c1.6,0.5,3.1,0.5,4.6-0.2c1.3-0.6,2.9-0.6,4.6,0
			c0.7,0.2,1.3,0.5,2,0.9c2.4,1.4,3.8,3.4,3.9,4.5c0.3,2.8,3.5,5.3,9.4,7.3c1.9,0.6,3.5,1,4.1,1.2c2.8,1,5,5.4,6.1,12.9
			c1,6.2,1.1,13.3,0.9,17.5c-0.5,2.5-4.5,21.4-5.3,29c-0.9,7.4-11.8,24.8-11.9,25l0,0l0,0l-0.1,0.1l0,0l0,0
			c-10.2,24.3-5.6,49-4.9,52.5c-1.4,10.6-24.7,13.6-33.6,13.9c-7.9,0.2-15-0.7-20.9-2.7c-20.3-6.8-22.5-24.4-22.8-27.2
			c5.9-16.2,3.9-31.3,3.8-32l0-0.2l0-0.2l-0.1-0.2l-0.1-0.2C14.4,198.9,7.5,173,7.5,172.7l0-0.1l0-0.1l-0.1-0.3l0-0.1l0-0.1
			c-5.4-8.9,0.1-23.2,0.2-23.4l0.1-0.3l0.1-0.3l-0.1-0.3l-0.1-0.3C6.1,142.8,8,126.8,8.8,121l0.1-0.4l0.1-0.4l-0.2-0.3l-0.2-0.3
			c-2-2.8-5.6-12.2-4.1-17.3c0.4-1.4,1.2-2.3,2.4-2.8c1.8-0.6,3.6-0.6,5.5,0c7.9,2.7,13.8,15.5,13.8,15.6l1,2.3l1,2.3l0.8-2.4
			l0.8-2.4c1.5-4.5,1.9-13.3,1.9-13.4l0,0l0,0c0-0.3-0.4-29.4,1.7-35.5C35.5,59.4,37.2,46.7,37.3,45.9L37.3,45.9z"/>
	</g>
</g>
<g>
	<path fill="#FFFFFF" d="M45.1,39c-4.4-1.5-5.8-6.8-5.8-6.8l1-0.2c0,0.1,1.5,6,6.7,6.4c5.3,0.4,6.9-4.3,8.7-9.2l0.9,0.3
		c-1.8,5.1-3.7,10.4-9.7,9.9C46.2,39.4,45.7,39.2,45.1,39z"/>
</g>
<g>
	<path fill="#FFFFFF" d="M4.6,117.5c0.8-5.8,3.8-8.2,4.9-9l-4-10.9l0.9-0.3l4.3,11.7l-0.4,0.2c0,0-3.8,2-4.7,8.4L4.6,117.5z"/>
</g>
<g>
	<g>
		<path fill="#FFFFFF" d="M11,144.5c0.1-0.3,0.1-0.5,0.2-0.8c0-0.1,0.1-0.3,0.1-0.4c0.1-0.3,0.2-0.5,0.3-0.8
			c0.1-0.1,0.1-0.2,0.2-0.3c0.2-0.4,0.3-0.7,0.5-1.1c0.1-0.1,0.1-0.2,0.2-0.4c0.1-0.2,0.3-0.5,0.4-0.7l0.6-1l0.3-0.4
			c0.4-0.5,0.8-1.1,1.2-1.6c0.4-0.5,0.8-1,1.3-1.5l0.3-0.3c0.5-0.6,1.1-1.2,1.6-1.7c1.2-1.2,2.3-2.2,3.4-3.1
			c0.1-0.1,0.2-0.4,0.3-0.6c0.2-0.4,0.5-0.8,0.7-1.2l0.5-1c0.1-0.2,0.2-0.4,0.3-0.6c0.1-0.1,0.3-0.7,0.3-0.7
			c0.1-0.2,0.2-0.4,0.3-0.6l0.4-1c0.1-0.2,0.2-0.4,0.2-0.7l0.1-0.4c0.1-0.3,0.2-0.7,0.3-1c0.4-1.3,0.8-2.8,1-4.3
			c0.1-0.7,0.2-1.4,0.3-2.2c0-0.6,0.1-1.4,0.1-2.1l0-0.3l2.5,0l0,0.3c0,0.8-0.1,1.5-0.2,2.4c-0.1,0.9-0.3,1.6-0.4,2.3
			c-0.3,1.6-0.8,3.1-1.3,4.5c-0.1,0.4-0.3,0.7-0.4,1.1l-0.2,0.4c-0.1,0.2-0.2,0.5-0.3,0.7l-0.5,1c-0.1,0.2-0.2,0.5-0.4,0.7L25,128
			c-0.1,0.2-0.2,0.5-0.4,0.7l-0.6,1c-0.3,0.4-0.5,0.8-0.8,1.3c-0.2,0.2-0.3,0.4-0.5,0.7l0,0l-0.1,0.1c-1.2,0.9-2.4,1.8-3.6,2.9
			c-0.6,0.5-1.1,1-1.7,1.6l-0.3,0.3c-0.4,0.5-0.9,0.9-1.3,1.4c-0.4,0.5-0.8,1-1.2,1.4l-0.3,0.3l-0.7,0.9c-0.2,0.2-0.3,0.4-0.4,0.6
			c-0.1,0.1-0.1,0.2-0.2,0.4c-0.2,0.3-0.4,0.6-0.6,1c-0.1,0.1-0.1,0.2-0.2,0.3c-0.1,0.2-0.2,0.4-0.3,0.7c0,0.1-0.1,0.3-0.1,0.4
			c-0.1,0.2-0.2,0.5-0.2,0.7l-0.3,1.1l-0.5-0.1L11,144.5z"/>
		<path fill="#FFFFFF" d="M28.8,114.2c0,0.8-0.1,1.6-0.2,2.4c-0.1,0.8-0.3,1.5-0.4,2.3c-0.3,1.5-0.8,3-1.3,4.4
			c-0.1,0.4-0.3,0.7-0.4,1.1c-0.2,0.4-0.3,0.7-0.4,1.1l-0.5,1c-0.2,0.4-0.4,0.7-0.5,1c-0.2,0.3-0.4,0.7-0.6,1l-0.6,1
			c-0.4,0.7-0.9,1.3-1.3,1.9l0,0.1l-0.1,0c-1.2,0.9-2.4,1.9-3.6,2.9c-0.6,0.5-1.1,1-1.7,1.6c-0.5,0.6-1.1,1.1-1.6,1.7
			c-0.5,0.6-1,1.2-1.5,1.8l-0.7,0.9c-0.2,0.3-0.4,0.6-0.6,1c-0.2,0.3-0.4,0.7-0.6,1c-0.2,0.3-0.4,0.7-0.5,1
			c-0.1,0.4-0.3,0.7-0.4,1.1l-0.3,1.1l0.2-1.2c0.1-0.4,0.2-0.7,0.3-1.1c0.1-0.4,0.3-0.7,0.4-1.1c0.1-0.4,0.3-0.7,0.5-1.1
			c0.2-0.3,0.4-0.7,0.6-1l0.6-1c0.5-0.6,0.9-1.3,1.4-1.9c0.5-0.6,1-1.2,1.5-1.8c0.5-0.6,1.1-1.1,1.6-1.7c1.1-1.1,2.2-2.1,3.4-3.1
			c0,0,0,0,0,0l0.1-0.1c0,0-0.1,0-0.1,0.1c0.4-0.6,0.8-1.2,1.1-1.9l0.5-1c0.2-0.3,0.3-0.7,0.5-1c0.2-0.3,0.3-0.7,0.5-1l0.4-1
			c0.1-0.3,0.2-0.7,0.4-1c0.1-0.3,0.2-0.7,0.3-1c0.4-1.4,0.8-2.8,1-4.3c0.1-0.7,0.2-1.4,0.3-2.2c0.1-0.7,0.1-1.5,0.1-2.1L28.8,114.2
			 M29.3,113.7l-0.5,0l-2,0l-0.5,0l0,0.5c0,0.7,0,1.5-0.1,2.1c-0.1,0.8-0.2,1.5-0.3,2.1c-0.2,1.5-0.6,2.9-1,4.2
			c-0.1,0.4-0.2,0.7-0.3,1c0,0.1-0.1,0.3-0.1,0.4c-0.1,0.2-0.1,0.4-0.2,0.6l-0.4,1c-0.1,0.2-0.2,0.4-0.3,0.6
			c-0.1,0.1-0.1,0.2-0.2,0.4c-0.1,0.1-0.1,0.2-0.2,0.4c-0.1,0.2-0.2,0.4-0.3,0.6l-0.5,1c-0.2,0.4-0.5,0.8-0.7,1.2
			c-0.1,0.2-0.2,0.4-0.3,0.6c-1.1,0.9-2.2,1.9-3.4,3.1c-0.6,0.6-1.2,1.2-1.6,1.7l-0.3,0.3c-0.4,0.5-0.9,1-1.3,1.5
			c-0.4,0.5-0.8,1-1.2,1.6l-0.2,0.3l-0.7,1c-0.2,0.2-0.3,0.5-0.4,0.7c-0.1,0.1-0.1,0.2-0.2,0.3c-0.2,0.3-0.4,0.7-0.6,1.1
			c0,0.1-0.1,0.2-0.1,0.3c-0.1,0.3-0.2,0.5-0.3,0.8c0,0.1-0.1,0.2-0.1,0.4c-0.1,0.2-0.2,0.5-0.2,0.8l-0.2,1.2l1,0.2l0.3-1.1
			c0.1-0.2,0.1-0.4,0.2-0.6c0.1-0.1,0.1-0.3,0.2-0.4c0.1-0.2,0.2-0.4,0.3-0.7c0.1-0.1,0.1-0.2,0.2-0.3c0.2-0.3,0.3-0.7,0.5-0.9
			c0.1-0.1,0.2-0.2,0.2-0.4c0.1-0.2,0.2-0.4,0.4-0.6l0.7-0.9l0.3-0.3c0.4-0.5,0.8-1,1.2-1.4c0.4-0.5,0.9-0.9,1.3-1.4l0.3-0.3
			c0.5-0.5,1.1-1,1.7-1.6c1.3-1.1,2.4-2.1,3.6-2.9l0.1,0l0.1-0.1l0-0.1l0-0.1c0.1-0.2,0.3-0.4,0.5-0.7c0.3-0.4,0.6-0.8,0.8-1.3
			l0.6-1c0.1-0.2,0.3-0.4,0.4-0.7c0.1-0.1,0.1-0.2,0.2-0.3c0.1-0.1,0.1-0.2,0.2-0.3c0.1-0.2,0.3-0.5,0.4-0.7l0.5-1
			c0.1-0.2,0.2-0.5,0.3-0.7c0-0.1,0.1-0.2,0.2-0.4c0.1-0.3,0.3-0.7,0.4-1.1c0.5-1.4,1-2.9,1.3-4.5c0.2-0.7,0.3-1.5,0.4-2.3
			c0.1-0.9,0.2-1.6,0.2-2.4L29.3,113.7L29.3,113.7z"/>
	</g>
</g>
<g>
	<g>
		<path fill="#FFFFFF" d="M50.4,226.7l0.1-2.5c0-0.3,0-0.6,0-0.9c0-0.2,0-0.4-0.1-0.6l0-0.4c0-0.5-0.1-0.9-0.2-1.4
			c-0.1-0.2-0.1-0.5-0.1-0.7c-0.1-0.4-0.2-0.9-0.3-1.3l-0.3-1.1c-0.1-0.4-0.2-0.7-0.4-1l-0.2-0.4c-0.2-0.6-0.5-1.1-0.8-1.7l-0.2-0.4
			c-0.1-0.2-0.2-0.4-0.4-0.6l-0.7-1c-0.3-0.4-0.6-0.8-0.9-1.2c-0.2-0.2-0.3-0.4-0.5-0.6l-0.4-0.4c-0.4-0.4-0.7-0.8-1.1-1.1
			c-0.6-0.5-1-0.9-1.4-1.3c-0.7-0.6-1.5-1.2-2.3-1.7c-0.6-0.4-0.9-0.5-0.9-0.5l0.2-0.5c0,0,0.4,0.1,1,0.5c0.9,0.4,1.7,1,2.5,1.5
			c0.5,0.3,1,0.7,1.6,1.2c0.4,0.3,0.8,0.7,1.2,1.1l0.4,0.4c0.2,0.2,0.4,0.4,0.6,0.6c0.4,0.4,0.7,0.8,1.1,1.2l0.8,0.9
			c0.2,0.2,0.3,0.4,0.5,0.7l0.2,0.4c0.4,0.6,0.7,1.2,1,1.8l0.2,0.4c0.2,0.4,0.4,0.7,0.5,1.1l0.4,1.1c0.2,0.5,0.3,1,0.5,1.4
			c0.1,0.2,0.1,0.5,0.2,0.7c0.2,0.5,0.3,1.1,0.3,1.6l0.1,0.4c0,0.2,0.1,0.4,0.1,0.6c0.1,0.4,0.1,0.7,0.1,1.1l0.1,2.7L50.4,226.7z"/>
		<path fill="#FFFFFF" d="M39.3,205.6c0,0,0.4,0.1,1,0.5c0.6,0.3,1.5,0.8,2.5,1.5c0.5,0.3,1,0.7,1.6,1.2c0.6,0.4,1.1,0.9,1.7,1.5
			c0.5,0.6,1.1,1.1,1.6,1.7c0.3,0.3,0.5,0.6,0.8,0.9c0.2,0.3,0.5,0.7,0.7,1c0.5,0.7,0.9,1.4,1.2,2.1c0.2,0.4,0.4,0.7,0.5,1.1
			c0.2,0.4,0.3,0.7,0.4,1.1c0.3,0.7,0.4,1.5,0.7,2.1c0.2,0.7,0.3,1.4,0.4,2c0.1,0.6,0.2,1.2,0.2,1.7c0,0.5,0,1,0.1,1.3
			c0,0.7,0.1,1.1,0.1,1.1l-2-0.1c0,0,0-0.4,0-1.1c0-0.3,0-0.7,0-1.2c0-0.5-0.1-1-0.1-1.6c-0.1-0.6-0.1-1.2-0.2-1.9
			c-0.2-0.6-0.2-1.4-0.5-2c-0.1-0.3-0.2-0.7-0.3-1.1c-0.1-0.4-0.2-0.7-0.4-1.1c-0.3-0.7-0.6-1.4-1-2.1c-0.2-0.3-0.4-0.7-0.6-1
			c-0.2-0.3-0.4-0.6-0.7-1c-0.4-0.7-1-1.2-1.4-1.8c-0.5-0.5-1-1.1-1.5-1.5c-0.5-0.5-1-0.9-1.5-1.3c-0.9-0.8-1.8-1.3-2.4-1.7
			C39.6,205.8,39.3,205.6,39.3,205.6 M39.4,205.2l-0.4,0.9c0,0,0.4,0.2,0.9,0.5c0.8,0.5,1.6,1,2.3,1.6c0.4,0.3,0.9,0.7,1.4,1.2
			c0.4,0.3,0.7,0.7,1.1,1.1c0.1,0.1,0.3,0.3,0.4,0.4c0.2,0.2,0.3,0.4,0.5,0.6c0.3,0.4,0.6,0.7,0.9,1.1l0.5,0.8l0.1,0.2
			c0.1,0.2,0.2,0.4,0.3,0.6c0.1,0.1,0.1,0.3,0.2,0.4c0.3,0.5,0.6,1.1,0.8,1.6l0.2,0.4c0.2,0.3,0.3,0.7,0.4,1l0.3,1.1
			c0.2,0.4,0.2,0.9,0.3,1.3c0,0.3,0.1,0.5,0.1,0.7c0.1,0.5,0.1,0.9,0.2,1.4c0,0.1,0,0.3,0,0.4c0,0.2,0,0.4,0.1,0.6
			c0,0.3,0.1,0.6,0,0.9l0,1.2l0,1.1l0,0.5l0.5,0l2,0.1l0.5,0l0-0.5l-0.1-1.1l0-0.4l0-0.9c0-0.3-0.1-0.7-0.1-1.1
			c0-0.2-0.1-0.4-0.1-0.6c0-0.2,0-0.3-0.1-0.4c-0.1-0.5-0.2-1.1-0.4-1.6c-0.1-0.2-0.1-0.5-0.2-0.7c-0.1-0.5-0.3-1-0.5-1.5l-0.2-0.5
			l-0.2-0.6c-0.1-0.4-0.3-0.8-0.5-1.2l-0.2-0.4c-0.3-0.6-0.6-1.2-1.1-1.8l-0.2-0.3c-0.2-0.2-0.3-0.5-0.5-0.7l-0.8-1
			c-0.3-0.4-0.7-0.8-1.1-1.2c-0.2-0.2-0.4-0.4-0.5-0.5c-0.2-0.2-0.3-0.3-0.5-0.4c-0.4-0.4-0.8-0.8-1.2-1.1c-0.6-0.5-1.1-0.9-1.6-1.2
			c-0.8-0.6-1.7-1.1-2.6-1.5C39.9,205.3,39.5,205.2,39.4,205.2L39.4,205.2z"/>
	</g>
</g>
</svg>
