<!-- Generator: Adobe Illustrator 19.1.0, SVG Export Plug-In  -->
<svg version="1.1"
	 xmlns="http://www.w3.org/2000/svg" xmlns:xlink="http://www.w3.org/1999/xlink" xmlns:a="http://ns.adobe.com/AdobeSVGViewerExtensions/3.0/"
	 x="0px" y="0px" width="162.9px" height="269.8px" viewBox="0 0 162.9 269.8" enable-background="new 0 0 162.9 269.8"
	 xml:space="preserve">
<defs>
</defs>
<g opacity="0.75">
	<path fill="#FFFFFF" d="M34.2,57.8c-13,0-23.6-10.6-23.6-23.6s10.6-23.6,23.6-23.6c13,0,23.6,10.6,23.6,23.6S47.2,57.8,34.2,57.8z
		 M34.2,11.9c-12.3,0-22.3,10-22.3,22.3s10,22.3,22.3,22.3s22.3-10,22.3-22.3S46.4,11.9,34.2,11.9z"/>
</g>
<g opacity="0.5">
	<path fill="#FFFFFF" d="M34.2,62.8c-15.8,0-28.6-12.8-28.6-28.6S18.4,5.6,34.2,5.6s28.6,12.8,28.6,28.6S49.9,62.8,34.2,62.8z
		 M34.2,6.9c-15,0-27.3,12.2-27.3,27.3c0,15,12.2,27.3,27.3,27.3s27.3-12.2,27.3-27.3C61.5,19.1,49.2,6.9,34.2,6.9z"/>
</g>
<g opacity="0.25">
	<path fill="#FFFFFF" d="M34.2,68.3C15.3,68.3,0,53,0,34.2S15.3,0,34.2,0C53,0,68.3,15.3,68.3,34.2S53,68.3,34.2,68.3z M34.2,1.3
		C16.1,1.3,1.3,16.1,1.3,34.2S16.1,67,34.2,67S67,52.3,67,34.2S52.3,1.3,34.2,1.3z"/>
</g>
<g>
	<g>
		<path fill="#FFFFFF" d="M110.8,269.3c-25.7,0-33.9-20.9-33.9-21.1l-0.1-0.3l0-0.3c0.4-15.2-5.2-28.1-6-30
			c-18-13.4-32.3-34.4-34.1-37c-8.3-7.2-8.5-21.3-8.4-24.4c-3.4-5.5-6.6-22.1-7.4-25.9c-3.5-2.8-10.1-10.9-10.4-17.4
			c-0.1-2.6,0.8-4.7,2.6-6.2c2.2-1.7,4.6-2.6,7.4-2.6c3.4,0,7.2,1.3,11.2,3.8c2.6,1.6,4.8,3.4,6.4,4.8c-0.6-3.9-1.8-8.2-1.9-8.4
			c-0.1-0.2-9.9-28-9.9-35.2c0-6.5-2.5-19.2-2.6-19.7c-0.1-0.7-2.2-17.1,3.4-23.5c1.5-1.7,3.5-2.6,5.7-2.6
			c11.3,0,13.1,11.1,14.4,19.1c0.1,0.6,0.2,1.2,0.3,1.8c1.2,7,2,13.5,2.1,14.9c3.7,6.5,6.4,16,8.5,23.6c1.1,3.8,2,7,2.7,8.8
			c0.6,1.4,1.6,3.1,3.5,3.5c0.3,0.1,0.5,0.1,0.8,0.1c2.1,0,4.8-1.5,7.6-4.2c2.2-2.2,4.8-3.3,7.7-3.3c4.8,0,8.7,3.2,8.8,3.2
			c1.9,1.8,5.7,4.8,8.5,4.8c0.8,0,1.5-0.2,2-0.7c1.7-1.5,4-2.3,6.7-2.3c0.9,0,1.9,0.1,2.9,0.3c3.6,0.8,6.6,2.7,7.6,5
			c0.5,1.1,3.7,1.8,8.3,1.8c1.3,0,2.7-0.1,3.9-0.2c0,0,0,0,0,0c5.1,0,10,5,14.6,14.9c3.1,6.8,5.1,13.6,5.3,14.3l0,0.2
			c0.3,2.3,2.6,21.7,4.1,29.1c1.7,7.9-2.8,26.8-3.3,29c-1.9,26.9,11.7,49.2,11.8,49.4l0.1,0.2l0.1,0.2c3.8,15.8-28.2,27.8-29.6,28.3
			C124.7,267.9,117.4,269.3,110.8,269.3L110.8,269.3z M79.8,247.4c1,2.4,8.7,19,30.8,19c0,0,0,0,0,0c6.3,0,13.4-1.4,20.9-4.1
			c0.3-0.1,30.5-11.4,27.8-24.5c-1.6-2.8-14-24.8-12.1-51.1l0-0.2c0.1-0.2,4.9-20.4,3.3-27.8c-1.6-7.6-3.9-27-4.2-29.2
			c-2.9-10.4-10.1-26.9-16.9-26.9c-0.6,0.1-2.2,0.2-4.2,0.2c-4.2,0-9.4-0.6-10.8-3.6c-0.6-1.4-2.9-2.8-5.5-3.3
			c-0.8-0.2-1.6-0.3-2.3-0.3c-1.9,0-3.5,0.5-4.7,1.6c-1.1,1-2.5,1.5-4,1.5c-4.9,0-10.3-5.3-10.6-5.6c-0.3-0.2-3.2-2.5-6.7-2.5
			c-2.1,0-4,0.8-5.7,2.5c-3.4,3.3-6.8,5.1-9.7,5.1c-0.5,0-1,0-1.4-0.1c-2.5-0.5-4.4-2.3-5.6-5.3c-0.8-2-1.8-5.3-2.8-9.1
			C53.2,76,50.5,66.5,47,60.4l-0.2-0.3l0-0.3c-0.1-0.8-0.9-7.7-2.2-15.1c-0.1-0.5-0.2-1-0.3-1.6l0-0.2c-1.2-7.8-2.6-16.6-11.4-16.6
			c-1.4,0-2.5,0.5-3.5,1.6c-4.7,5.3-2.7,20.9-2.7,21.1c0,0.1,2.7,13.1,2.7,20.2c0,6.5,9.7,34.1,9.7,34.3c0,0.1,2.4,8.5,2.4,13.2v3.8
			l-2.6-2.8c-0.1-0.1-9.8-10.6-18.4-10.6c-2.1,0-3.9,0.6-5.5,1.9c-1.1,0.9-1.6,2.2-1.5,3.8c0.2,5.7,6.9,13.5,9.6,15.5l0.5,0.4
			l0.1,0.6c0,0.2,3.8,20.8,7.3,25.8l0.3,0.4l0,0.5c0,0.2-0.7,15.7,7.5,22.6l0.2,0.3c0.2,0.3,15.3,22.9,33.8,36.7l0.3,0.2l0.2,0.3
			C73.5,216.6,80.2,230.2,79.8,247.4z"/>
		<path fill="#FFFFFF" d="M32.9,23.8c10.9,0,12.6,10.8,13.9,18.7c0.1,0.6,0.2,1.2,0.3,1.8c1.2,7.2,2,13.8,2.1,15
			c3.7,6.4,6.4,15.9,8.5,23.6c1.1,3.8,2,7,2.8,8.8c0.6,1.5,1.8,3.3,3.8,3.8c0.3,0.1,0.6,0.1,0.9,0.1c2.3,0,5-1.5,8-4.4
			c2.4-2.4,5-3.2,7.4-3.2c4.6,0,8.4,3.1,8.5,3.1c0.1,0.1,5,4.9,8.8,4.9c0.9,0,1.7-0.2,2.4-0.9c1.6-1.4,3.9-2.2,6.4-2.2
			c0.9,0,1.9,0.1,2.8,0.3c3.4,0.7,6.3,2.6,7.2,4.7c0.7,1.5,4.8,2.1,8.7,2.1c1.4,0,2.7-0.1,3.9-0.2c0,0,0,0,0,0
			c4.9,0,9.6,4.9,14.1,14.7c3.3,7,5.3,14.2,5.3,14.2l0,0.2c0,0.2,2.5,21.4,4.2,29.1c1.7,7.8-2.9,27.1-3.3,28.8
			c-1.9,27,11.7,49.5,11.9,49.8l0.1,0.1l0,0.2c3.7,15.4-27.9,27.2-29.3,27.7c-8.2,3-15.4,4.2-21.5,4.2c-25.2,0-33.4-20.5-33.5-20.8
			l-0.1-0.2l0-0.2c0.5-15.6-5.3-28.5-6.1-30.3c-18.3-13.6-32.9-35.2-34.1-37c-8.4-7.3-8.3-21.8-8.3-24.2c-3.4-5.5-6.9-23.1-7.4-26.1
			c-3-2.4-10.1-10.5-10.3-17.2c-0.1-2.4,0.7-4.4,2.4-5.8c2.1-1.6,4.4-2.4,7.1-2.4c3.3,0,7,1.2,10.9,3.7c3.1,1.9,5.7,4.2,7.4,5.7
			c-0.6-4.3-2.1-9.7-2.1-9.8c-0.4-1.1-9.9-28.2-9.9-35.1c0-6.7-2.6-19.7-2.6-19.8c-0.1-0.8-2.1-16.9,3.3-23.1
			C29,24.6,30.8,23.8,32.9,23.8 M41.1,119.2l-1.7-1.9c-0.1-0.1-10-10.7-18.8-10.7c-2.1,0-4,0.6-5.8,2c-1.2,1-1.8,2.4-1.7,4.2
			c0.2,5.8,7.1,13.9,9.8,15.9l0.3,0.2l0.1,0.4c0,0.2,3.8,20.8,7.3,25.9l0.2,0.3l0,0.3c0,0.2-0.7,15.9,7.6,23l0.2,0.2
			c0.1,0.2,15.1,22.9,33.9,36.7l0.2,0.1l0.1,0.2c0.3,0.6,6.9,14.1,6.4,31.3c0.9,2.2,8.6,19.4,31.3,19.4c5.9,0,12.9-1.2,21.1-4.1
			c0.3-0.1,31.1-11.6,28.1-25.2c-1.2-2-14-24.3-12.1-50.9l0-0.2c0-0.2,4.9-20.4,3.3-27.9c-1.6-7.6-4-27.6-4.2-29.2
			c-2.1-7.7-9.4-27.4-17.3-27.4c-0.7,0.1-2.3,0.2-4.2,0.2c-3.9,0-9.1-0.5-10.3-3.3c-0.7-1.5-3.1-3-5.8-3.6c-0.8-0.2-1.6-0.3-2.4-0.3
			c-2,0-3.8,0.6-5,1.7c-1.1,1-2.4,1.4-3.7,1.4c-4.7,0-9.9-5.1-10.2-5.4c-0.1-0.1-3.2-2.6-7-2.6c-1.9,0-4.1,0.7-6.1,2.6
			c-3.3,3.3-6.5,4.9-9.3,4.9c-0.5,0-0.9,0-1.3-0.1c-2.3-0.5-4.1-2.2-5.3-5c-0.8-2-1.7-5.3-2.8-9.1c-2.2-7.6-4.9-17.1-8.4-23.3
			L47.3,60l0-0.2c0-0.1-0.8-7.2-2.2-15.1c-0.1-0.6-0.2-1.2-0.3-1.8c-1.3-8-2.7-17-11.9-17c-1.6,0-2.8,0.6-3.9,1.8
			c-4.8,5.5-2.8,21.3-2.8,21.4c0.1,0.5,2.7,13.3,2.7,20.1c0,6.6,9.7,34.2,9.8,34.5c0.1,0.4,2.4,8.6,2.4,13V119.2 M32.9,22.8
			c-2.4,0-4.5,0.9-6.1,2.8c-5.8,6.6-3.6,23.2-3.5,23.9l0,0l0,0c0,0.1,2.6,13.1,2.6,19.6c0,7.2,9.5,34.3,9.9,35.4
			c0.1,0.4,1,3.6,1.6,6.9c-1.5-1.3-3.4-2.7-5.4-4c-4.1-2.6-8-3.9-11.5-3.9c-2.9,0-5.5,0.9-7.7,2.7c-2,1.7-2.9,3.9-2.8,6.6
			c0.2,6.6,6.8,14.7,10.4,17.7c0.8,4.1,4,20.1,7.3,25.8c-0.1,3.4,0.2,17.3,8.5,24.6c1.9,2.9,16.1,23.6,34.1,37
			c1,2.2,6.4,14.8,5.9,29.6l0,0.2l0,0.2l0.1,0.2l0.1,0.2c0.1,0.2,8.4,21.4,34.4,21.4c6.7,0,14-1.4,21.8-4.3
			c0.9-0.3,9.1-3.4,16.7-8.4c10.4-6.7,14.8-13.6,13.2-20.5l0-0.2l0-0.2l-0.1-0.1l-0.1-0.1c-0.1-0.2-13.6-22.4-11.7-49.1
			c0.6-2.5,5-21.2,3.3-29.1c-1.6-7.3-3.9-26.8-4.1-29l0,0l0-0.1l0-0.2l0,0l0,0c-0.2-0.8-2.2-7.6-5.3-14.4
			c-4.8-10.3-9.7-15.2-15-15.2h0l-0.1,0c-1.2,0.1-2.5,0.2-3.9,0.2c-5.2,0-7.5-0.9-7.8-1.5c-1.1-2.4-4.2-4.5-7.9-5.3
			c-1-0.2-2-0.3-3-0.3c-2.8,0-5.2,0.8-7,2.5c-0.5,0.4-1,0.6-1.7,0.6c-2.7,0-6.4-2.9-8.1-4.6l0,0l0,0c0,0-4.1-3.3-9.1-3.3
			c-3,0-5.7,1.2-8.1,3.4c-2.7,2.6-5.3,4.1-7.3,4.1c-0.3,0-0.5,0-0.7-0.1c-1.6-0.3-2.6-1.9-3.1-3.2c-0.7-1.8-1.7-5-2.7-8.7
			C56.5,75,53.9,65.5,50.2,59c-0.2-1.6-1-8-2.1-14.9c-0.1-0.6-0.2-1.2-0.3-1.8C46.5,34.6,44.7,22.8,32.9,22.8L32.9,22.8z M27.2,48.9
			c-0.6-4.3-1.2-16.4,2.6-20.6c0.9-1,1.8-1.4,3.1-1.4c8.3,0,9.6,8.2,10.9,16.2l0,0.2c0.1,0.5,0.2,1.1,0.3,1.6
			c1.2,7.4,2.1,14.3,2.2,15l0,0.2l0,0.2l0.1,0.2l0.1,0.2c3.5,6.1,6.2,15.5,8.4,23.1c1.1,3.9,2,7.2,2.9,9.2c1.3,3.1,3.3,5,6,5.6
			c0.5,0.1,1,0.2,1.5,0.2c3.1,0,6.5-1.8,10-5.2c1.6-1.5,3.4-2.3,5.4-2.3c3.2,0,5.9,2,6.4,2.4c0.8,0.8,5.9,5.7,10.9,5.7
			c1.7,0,3.1-0.5,4.3-1.6c1.1-0.9,2.6-1.4,4.3-1.4c0.7,0,1.4,0.1,2.2,0.2c2.7,0.6,4.7,2,5.1,3c1.2,2.6,4.9,3.9,11.2,3.9
			c2,0,3.6-0.1,4.3-0.2c3,0,6.4,3.6,9.9,10.3c2.9,5.6,5.3,12.2,6.4,16.3c0.3,2.5,2.6,21.7,4.2,29.2c1.5,7.3-3.3,27.3-3.3,27.5l0,0
			l0,0l0,0.2l0,0l0,0c-1.9,26.3,10.3,48.3,12.1,51.3c2.1,10.5-19.1,20.8-27.5,23.9c-7.5,2.7-14.4,4.1-20.7,4.1
			c-21.5,0-29.1-15.9-30.3-18.6c0.4-17.3-6.3-30.9-6.6-31.5l-0.1-0.2l-0.1-0.2l-0.2-0.1l-0.2-0.1c-18.8-13.9-33.5-36.3-33.7-36.5
			l0-0.1l0-0.1l-0.2-0.2l0-0.1l-0.1,0c-7.9-6.7-7.3-22.1-7.3-22.2l0-0.3l0-0.3l-0.2-0.3l-0.2-0.3c-2.8-4.1-6.1-19.8-7.2-25.6
			l-0.1-0.4l-0.1-0.4l-0.3-0.2l-0.3-0.2c-2.8-2-9.2-9.8-9.4-15.1c-0.1-1.5,0.4-2.6,1.3-3.4c1.5-1.2,3.2-1.8,5.2-1.8
			c8.4,0,18,10.3,18.1,10.4l1.7,1.9l1.7,1.9v-2.6v-2.6c0-4.7-2.4-13.2-2.4-13.3l0,0l0,0c-0.1-0.3-9.7-27.8-9.7-34.2
			C29.9,62.2,27.4,49.7,27.2,48.9L27.2,48.9z"/>
	</g>
</g>
<g>
	<g>
		<polygon fill="#FFFFFF" points="58.9,29.8 60.7,29.8 60.7,29.9 		"/>
	</g>
	<g>
		<polygon fill="#FFFFFF" points="64.3,29.7 67.9,29.6 67.9,30 64.3,29.9 		"/>
	</g>
	<g>
		<polygon fill="#FFFFFF" points="71.5,29.6 75.1,29.5 75.1,30.1 71.5,30.1 		"/>
	</g>
	<g>
		<polygon fill="#FFFFFF" points="78.7,29.4 82.2,29.3 82.2,30.3 78.7,30.2 		"/>
	</g>
	<g>
		<polygon fill="#FFFFFF" points="85.8,29.3 89.4,29.2 89.4,30.4 85.8,30.4 		"/>
	</g>
	<g>
		<polygon fill="#FFFFFF" points="93,29.1 96.6,29.1 96.6,30.6 93,30.5 		"/>
	</g>
	<g>
		<polygon fill="#FFFFFF" points="100.2,29 103.8,28.9 103.8,30.7 100.2,30.7 		"/>
	</g>
	<g>
		<polygon fill="#FFFFFF" points="107.4,28.8 110.9,28.8 110.9,30.9 107.4,30.8 		"/>
	</g>
	<g>
		<polygon fill="#FFFFFF" points="114.5,28.7 118.1,28.6 118.1,31 114.5,30.9 		"/>
	</g>
	<g>
		<polygon fill="#FFFFFF" points="121.7,28.5 125.3,28.5 125.3,31.2 121.7,31.1 		"/>
	</g>
	<g>
		<polygon fill="#FFFFFF" points="128.9,28.4 132.5,28.3 132.5,31.3 128.9,31.2 		"/>
	</g>
	<g>
		<polygon fill="#FFFFFF" points="136,28.3 137.8,28.2 137.8,31.4 136,31.4 		"/>
	</g>
	<g>
		<g>
			<polygon fill="#FFFFFF" points="135.7,37 148.2,29.8 135.7,22.6 			"/>
		</g>
	</g>
</g>
<g>
	<path fill="#FFFFFF" d="M32.5,39.9c-4.7,0-7.6-4.6-7.7-4.6l0.8-0.5c0,0.1,3.4,5.2,8.4,4c5.1-1.3,5.2-6.3,5.3-11.5l1,0
		c-0.1,5.4-0.2,11-6,12.5C33.7,39.8,33.1,39.9,32.5,39.9z"/>
</g>
<g>
	<path fill="#FFFFFF" d="M19.2,127.2c-1.1-5.7,1-9,1.8-10l-7.2-9l0.8-0.6l7.8,9.7l-0.3,0.3c0,0-3,3.1-1.8,9.5L19.2,127.2z"/>
</g>
<g>
	<g>
		<path fill="#FFFFFF" d="M33.7,150.7c0-0.3,0-0.5,0-0.8c0-0.1,0-0.3,0-0.4c0-0.3,0-0.6,0-0.8c0-0.1,0-0.2,0-0.4
			c0-0.4,0.1-0.8,0.2-1.2c0-0.1,0-0.3,0.1-0.4c0-0.3,0.1-0.5,0.2-0.8l0.3-1.1l0.1-0.4c0.2-0.6,0.4-1.2,0.6-1.8
			c0.2-0.6,0.5-1.2,0.7-1.8l0.2-0.4c0.3-0.7,0.7-1.4,1-2.1c0.8-1.5,1.5-2.8,2.3-4c0-0.2,0.1-0.4,0.1-0.6c0.1-0.5,0.2-0.9,0.3-1.4
			L40,131c0-0.2,0.1-0.5,0.1-0.7c0-0.1,0.1-0.8,0.1-0.8c0-0.2,0.1-0.5,0.1-0.7l0.1-1.1c0-0.2,0-0.5,0-0.7l0-0.4c0-0.4,0-0.7,0-1.1
			c0-1.4-0.2-2.9-0.4-4.4c-0.1-0.7-0.2-1.4-0.4-2.1c-0.1-0.6-0.3-1.3-0.6-2l-0.1-0.2l2.4-0.8l0.1,0.2c0.2,0.8,0.4,1.5,0.5,2.3
			c0.2,0.9,0.3,1.6,0.3,2.3c0.2,1.6,0.2,3.2,0.2,4.7c0,0.4,0,0.8-0.1,1.2l0,0.4c0,0.3,0,0.5-0.1,0.8l-0.1,1.1c0,0.3-0.1,0.5-0.1,0.8
			l-0.1,0.8c0,0.3-0.1,0.5-0.1,0.8l-0.3,1.1c-0.1,0.5-0.3,1-0.4,1.5c-0.1,0.3-0.2,0.5-0.2,0.8l0,0l0,0.1c-0.9,1.2-1.7,2.5-2.5,4
			c-0.4,0.7-0.7,1.3-1.1,2l-0.2,0.4c-0.3,0.6-0.6,1.1-0.8,1.7c-0.3,0.6-0.5,1.2-0.7,1.8l-0.1,0.4l-0.3,1.1c-0.1,0.2-0.1,0.5-0.2,0.7
			c0,0.1-0.1,0.3-0.1,0.4c-0.1,0.4-0.2,0.7-0.2,1.1c0,0.1,0,0.3-0.1,0.4c0,0.3-0.1,0.5-0.1,0.7c0,0.1,0,0.3,0,0.4c0,0.2,0,0.5,0,0.7
			l0.1,1.2l-0.5,0.1L33.7,150.7z"/>
		<path fill="#FFFFFF" d="M41,116.3c0.2,0.8,0.4,1.5,0.5,2.3c0.1,0.8,0.3,1.5,0.3,2.3c0.2,1.5,0.2,3.1,0.2,4.6c0,0.4,0,0.8-0.1,1.2
			c0,0.4,0,0.8-0.1,1.2l-0.1,1.1c0,0.4-0.1,0.8-0.2,1.1c-0.1,0.4-0.1,0.8-0.2,1.1l-0.3,1.1c-0.2,0.7-0.4,1.5-0.6,2.2l0,0.1l0,0.1
			c-0.9,1.2-1.7,2.6-2.5,3.9c-0.4,0.7-0.7,1.4-1.1,2c-0.3,0.7-0.7,1.4-1,2.1c-0.3,0.7-0.6,1.4-0.9,2.2l-0.4,1.1
			c-0.1,0.4-0.2,0.7-0.3,1.1c-0.1,0.4-0.2,0.8-0.2,1.1c0,0.4-0.1,0.8-0.1,1.2c0,0.4,0,0.8,0,1.2l0.1,1.2l-0.2-1.2c0-0.4,0-0.8,0-1.2
			c0-0.4,0-0.8,0.1-1.2c0-0.4,0.1-0.8,0.2-1.2c0.1-0.4,0.1-0.8,0.2-1.2l0.3-1.1c0.2-0.7,0.5-1.5,0.7-2.2c0.3-0.7,0.6-1.5,0.9-2.2
			c0.3-0.7,0.7-1.4,1-2.1c0.7-1.4,1.4-2.7,2.3-4c0,0,0,0,0,0.1l0.1-0.1c0,0,0,0.1-0.1,0.1c0.2-0.7,0.3-1.4,0.5-2.1l0.2-1.1
			c0.1-0.4,0.1-0.7,0.1-1.1c0-0.4,0.1-0.7,0.1-1.1l0.1-1.1c0-0.4,0-0.7,0-1.1c0-0.4,0-0.7,0-1.1c0-1.5-0.2-2.9-0.4-4.4
			c-0.1-0.7-0.3-1.4-0.4-2.2c-0.2-0.7-0.4-1.4-0.6-2.1L41,116.3 M41.4,115.7l-0.5,0.2l-1.9,0.6l-0.5,0.2l0.2,0.5
			c0.2,0.7,0.4,1.4,0.6,2c0.2,0.8,0.3,1.5,0.4,2.1c0.2,1.5,0.4,2.9,0.4,4.3c0,0.4,0,0.8,0,1.1c0,0.1,0,0.3,0,0.4c0,0.2,0,0.5,0,0.7
			l-0.1,1.1c0,0.2,0,0.5-0.1,0.7c0,0.1,0,0.3,0,0.4c0,0.1,0,0.3,0,0.4c0,0.2,0,0.4-0.1,0.7l-0.2,1.1c-0.1,0.5-0.2,0.9-0.3,1.4
			c-0.1,0.2-0.1,0.4-0.2,0.6c-0.7,1.2-1.5,2.5-2.2,4c-0.4,0.7-0.7,1.5-1,2.1l-0.2,0.4c-0.3,0.6-0.5,1.2-0.7,1.9
			c-0.2,0.6-0.4,1.2-0.6,1.8l-0.1,0.4l-0.3,1.2c-0.1,0.3-0.1,0.5-0.2,0.8c0,0.1,0,0.3-0.1,0.4c-0.1,0.4-0.1,0.8-0.2,1.2
			c0,0.1,0,0.2,0,0.4c0,0.3-0.1,0.6,0,0.9c0,0.1,0,0.3,0,0.4c0,0.3,0,0.5,0,0.8l0.2,1.2l1-0.1l-0.1-1.2c0-0.2,0-0.4,0-0.7
			c0-0.1,0-0.3,0-0.4c0-0.2,0-0.5,0.1-0.7c0-0.1,0-0.3,0.1-0.4c0-0.4,0.1-0.7,0.2-1.1c0-0.1,0.1-0.3,0.1-0.4
			c0.1-0.2,0.1-0.5,0.2-0.7l0.4-1.1l0.1-0.4c0.2-0.6,0.4-1.2,0.7-1.7c0.2-0.6,0.5-1.2,0.8-1.7l0.2-0.4c0.3-0.6,0.7-1.3,1.1-2
			c0.8-1.5,1.6-2.7,2.5-3.9l0-0.1l0.1-0.1l0-0.1l0-0.1c0.1-0.3,0.1-0.5,0.2-0.8c0.1-0.5,0.3-1,0.4-1.5l0.3-1.1
			c0.1-0.2,0.1-0.5,0.1-0.8c0-0.1,0-0.3,0.1-0.4c0-0.1,0-0.3,0.1-0.4c0-0.3,0.1-0.5,0.1-0.8l0.1-1.1c0-0.3,0-0.5,0.1-0.8
			c0-0.1,0-0.3,0-0.4c0-0.4,0.1-0.8,0.1-1.2c0-1.5,0-3.1-0.2-4.7c-0.1-0.7-0.2-1.5-0.3-2.3c-0.2-0.9-0.3-1.6-0.6-2.4L41.4,115.7
			L41.4,115.7z"/>
	</g>
</g>
<g>
	<g>
		<path fill="#FFFFFF" d="M70.7,216.8l0.1-2.5c0-0.3,0-0.6,0-0.9c0-0.2,0-0.4-0.1-0.6l0-0.4c0-0.5-0.1-0.9-0.2-1.4
			c-0.1-0.2-0.1-0.5-0.1-0.7c-0.1-0.4-0.2-0.9-0.3-1.3l-0.3-1.1c-0.1-0.4-0.2-0.7-0.4-1l-0.2-0.4c-0.2-0.6-0.5-1.1-0.8-1.7l-0.2-0.4
			c-0.1-0.2-0.2-0.4-0.4-0.6l-0.7-1c-0.3-0.4-0.6-0.8-0.9-1.2c-0.2-0.2-0.3-0.4-0.5-0.6l-0.4-0.4c-0.4-0.4-0.7-0.8-1.1-1.1
			c-0.6-0.5-1-0.9-1.4-1.3c-0.7-0.6-1.5-1.2-2.3-1.7c-0.6-0.4-0.9-0.5-0.9-0.5l0.2-0.5c0,0,0.4,0.1,1,0.5c0.9,0.4,1.7,1,2.5,1.5
			c0.5,0.3,1,0.7,1.6,1.2c0.4,0.3,0.8,0.7,1.2,1.1l0.4,0.4c0.2,0.2,0.4,0.4,0.6,0.6c0.4,0.4,0.7,0.8,1.1,1.2l0.8,0.9
			c0.2,0.2,0.3,0.4,0.5,0.7l0.2,0.4c0.4,0.6,0.7,1.2,1,1.8l0.2,0.4c0.2,0.4,0.4,0.7,0.5,1.1l0.4,1.1c0.2,0.5,0.3,1,0.5,1.4
			c0.1,0.2,0.1,0.5,0.2,0.7c0.2,0.5,0.3,1.1,0.3,1.6l0.1,0.4c0,0.2,0.1,0.4,0.1,0.6c0.1,0.4,0.1,0.7,0.1,1.1l0.1,2.7L70.7,216.8z"/>
		<path fill="#FFFFFF" d="M59.5,195.8c0,0,0.4,0.1,1,0.5c0.6,0.3,1.5,0.8,2.5,1.5c0.5,0.3,1,0.7,1.6,1.2c0.6,0.4,1.1,0.9,1.7,1.5
			c0.5,0.6,1.1,1.1,1.6,1.7c0.3,0.3,0.5,0.6,0.8,0.9c0.2,0.3,0.5,0.7,0.7,1c0.5,0.7,0.9,1.4,1.2,2.1c0.2,0.4,0.4,0.7,0.5,1.1
			c0.2,0.4,0.3,0.7,0.4,1.1c0.3,0.7,0.4,1.5,0.7,2.1c0.2,0.7,0.3,1.4,0.4,2c0.1,0.6,0.2,1.2,0.2,1.7c0,0.5,0,1,0.1,1.3
			c0,0.7,0.1,1.1,0.1,1.1l-2-0.1c0,0,0-0.4,0-1.1c0-0.3,0-0.7,0-1.2c0-0.5-0.1-1-0.1-1.6c-0.1-0.6-0.1-1.2-0.2-1.9
			c-0.2-0.6-0.2-1.4-0.5-2c-0.1-0.3-0.2-0.7-0.3-1.1c-0.1-0.4-0.2-0.7-0.4-1.1c-0.3-0.7-0.6-1.4-1-2.1c-0.2-0.3-0.4-0.7-0.6-1
			c-0.2-0.3-0.4-0.6-0.7-1c-0.4-0.7-1-1.2-1.4-1.8c-0.5-0.5-1-1.1-1.5-1.5c-0.5-0.5-1-0.9-1.5-1.3c-0.9-0.8-1.8-1.3-2.4-1.7
			C59.9,196,59.5,195.8,59.5,195.8 M59.7,195.4l-0.4,0.9c0,0,0.4,0.2,0.9,0.5c0.8,0.5,1.6,1,2.3,1.6c0.4,0.3,0.9,0.7,1.4,1.2
			c0.4,0.3,0.7,0.7,1.1,1.1c0.1,0.1,0.3,0.3,0.4,0.4c0.2,0.2,0.3,0.4,0.5,0.6c0.3,0.4,0.6,0.7,0.9,1.1l0.5,0.8l0.1,0.2
			c0.1,0.2,0.2,0.4,0.3,0.6c0.1,0.1,0.1,0.3,0.2,0.4c0.3,0.5,0.6,1.1,0.8,1.6l0.2,0.4c0.2,0.3,0.3,0.7,0.4,1l0.3,1.1
			c0.2,0.4,0.2,0.9,0.3,1.3c0,0.3,0.1,0.5,0.1,0.7c0.1,0.5,0.1,0.9,0.2,1.4c0,0.1,0,0.3,0,0.4c0,0.2,0,0.4,0.1,0.6
			c0,0.3,0.1,0.6,0,0.9l0,1.2l0,1.1l0,0.5l0.5,0l2,0.1l0.5,0l0-0.5l-0.1-1.1l0-0.4l0-0.9c0-0.3-0.1-0.7-0.1-1.1
			c0-0.2-0.1-0.4-0.1-0.6c0-0.2,0-0.3-0.1-0.4c-0.1-0.5-0.2-1.1-0.4-1.6c-0.1-0.2-0.1-0.5-0.2-0.7c-0.1-0.5-0.3-1-0.5-1.5l-0.2-0.5
			l-0.2-0.6c-0.1-0.4-0.3-0.8-0.5-1.2l-0.2-0.4c-0.3-0.6-0.6-1.2-1.1-1.8l-0.2-0.3c-0.2-0.2-0.3-0.5-0.5-0.7l-0.8-1
			c-0.3-0.4-0.7-0.8-1.1-1.2c-0.2-0.2-0.4-0.4-0.5-0.5c-0.2-0.2-0.3-0.3-0.5-0.4c-0.4-0.4-0.8-0.8-1.2-1.1c-0.6-0.5-1.1-0.9-1.6-1.2
			c-0.8-0.6-1.7-1.1-2.6-1.5C60.1,195.5,59.7,195.4,59.7,195.4L59.7,195.4z"/>
	</g>
</g>
</svg>
