<!-- Generator: Adobe Illustrator 19.1.0, SVG Export Plug-In  -->
<svg version="1.1"
	 xmlns="http://www.w3.org/2000/svg" xmlns:xlink="http://www.w3.org/1999/xlink" xmlns:a="http://ns.adobe.com/AdobeSVGViewerExtensions/3.0/"
	 x="0px" y="0px" width="193.9px" height="283.2px" viewBox="0 0 193.9 283.2" enable-background="new 0 0 193.9 283.2"
	 xml:space="preserve">
<defs>
</defs>
<g>
	<g>
		<path fill="#FFFFFF" d="M109.4,282.7c-2.9,0-6.2-0.2-9.5-0.6c-21-2.4-35.7-9.9-41.3-21.1c-3.6-7.1-3.3-15.3,0.9-22.4
			c0.1-0.3,14.9-26.3,8.5-44.4c-3.3-9.3-6-13.6-8.2-17c-2.4-3.7-4.2-6.5-5.8-13.3c-0.6-1.3-3.6-7.2-6-16.1
			c-3-10.8-9.5-30.1-19.5-38.2c0,0-8.1-5.4-7.8-11.9c0.2-3.3,2.4-6.2,6.7-8.6l0.3-0.1l0.3,0c0,0,0.8-0.1,2.2-0.1
			c6.1,0,21.3,1.7,29.9,17.1c2,2.4,12.3,15.1,12.9,20.5c0.4,0.7,2.2,3.3,4.3,3.6c0.1,0,0.2,0,0.3,0c1.1,0,2.3-0.7,3.4-2
			c0.9-0.9,8.8-8.5,13.2-10c1.6-1.9,11.7-14.7,11.7-22l0-0.1c0-0.3,2.9-24.7,13.8-48.7c0.6-2,6-20.7,15.6-25.8
			c1.6-0.9,3.3-1.3,4.9-1.3c1,0,2.1,0.2,3.2,0.5c0.8,0.1,3.3,0.6,5,3.3c3.3,5.2,2,15-4,29.1c-0.4,1.3-4.4,12.9-6.2,24.7l-0.1,0.3
			c-0.1,0.2-5.4,13.4-2.6,24.8c1.2-0.2,2.8-0.3,4.8-0.3c3.9,0,9.4,0.7,13.8,3.9c3.6,2.7,5.9,6.7,6.6,11.9c0.7-0.1,1.7-0.2,2.8-0.2
			c3.1,0,5.9,0.9,8.2,2.6c4.5,3.4,6.8,9.7,6.9,18.9c0.1,0,0.2,0,0.3,0c2.5,0,7.3,0.5,10.7,4.1c3.6,3.7,4.7,9.6,3.3,17.5
			c0,0.2-4,14.9-7.5,20.5l-0.2,0.3c-0.1,0.1-6.2,5.4-10.3,17.1l-0.1,0.3c-0.4,0.5-8.2,11.9-13.7,19.4c-0.1,0.1-11.7,14.7-14.7,18.4
			c-0.9,1.5-6.8,10.9-8.6,22.7c0.3,1.7,1,9.2-4.6,15.3C128.1,280.1,120.2,282.7,109.4,282.7L109.4,282.7z M28.5,91.8
			c-3.1,1.8-4.7,3.8-4.8,5.9c-0.2,4.7,6.5,9.3,6.6,9.4c10.8,8.8,17.5,28.7,20.6,39.8c2.5,9.2,5.7,15.4,5.9,15.7l0.1,0.3
			c1.5,6.5,3.2,9.2,5.4,12.6c2.3,3.5,5.1,7.9,8.5,17.6c6.8,19.4-8.1,45.8-8.8,46.9c-3.6,6.2-3.9,13.4-0.8,19.6
			c5.2,10.3,19,17.2,39,19.5c3.3,0.4,6.4,0.6,9.2,0.6c9.9,0,17.1-2.3,21.3-6.8c5.2-5.6,3.9-12.9,3.8-13l0-0.3l0-0.3
			c2-13.5,8.9-23.9,9.2-24.3c2.5-3.1,11-13.7,14.5-18.1l0.2-0.3c5.2-7.1,12.5-17.6,13.5-19.1c4-11.3,9.6-16.8,10.9-18
			c3.1-5.2,7-19.3,7-19.4c1.2-6.8,0.4-11.7-2.5-14.7c-2.7-2.8-6.5-3.2-8.6-3.2c-0.9,0-1.5,0.1-1.5,0.1l-1.8,0.3l0-1.8
			c0.2-9-1.7-15.1-5.6-18c-1.8-1.3-3.9-2-6.4-2c-2.1,0-3.6,0.5-3.7,0.5L158,122l-0.2-1.9c-0.4-5.1-2.3-9-5.6-11.5
			c-3.7-2.8-8.6-3.3-12-3.3c-3.2,0-5.5,0.5-5.6,0.5l-1.4,0.3l-0.4-1.3c-3.6-12.1,1.6-26,2.3-27.8c2-12.6,6.3-25,6.4-25.1
			c7-16.5,6.1-23.4,4.2-26.4c-1.2-1.8-2.8-2-2.9-2l-0.4-0.1c-0.9-0.3-1.7-0.4-2.4-0.4c-1.2,0-2.3,0.3-3.5,0.9
			c-8.7,4.6-14.1,23.9-14.2,24.1l-0.1,0.2c-10.6,23.4-13.4,46.9-13.6,47.9c0,9-12.2,23.6-12.7,24.2l-0.3,0.4l-0.5,0.1
			c-2.6,0.7-9,6-12.3,9.3c-1.7,1.9-3.6,2.9-5.6,2.9c-0.2,0-0.5,0-0.7,0c-4.1-0.5-6.6-5.3-6.7-5.5l-0.2-0.3v-0.4
			c0-2.8-6.3-12-12.3-19.2l-0.1-0.2c-7.8-14.2-21.7-15.7-27.3-15.7C29.4,91.7,28.8,91.7,28.5,91.8z"/>
		<path fill="#FFFFFF" d="M140.2,20.5c1,0,2,0.2,3,0.5c0.7,0.1,3,0.5,4.7,3.1c3.2,5,1.9,14.6-4,28.6c0,0.1-4.3,12.3-6.3,24.8
			l-0.1,0.2c-0.1,0.1-5.5,13.8-2.5,25.5c1.1-0.2,2.9-0.4,5.2-0.4c4,0,9.3,0.7,13.5,3.8c3.7,2.7,5.8,6.8,6.5,12.1
			c0.8-0.2,1.9-0.3,3.3-0.3c2.3,0,5.3,0.5,7.9,2.5c4.5,3.3,6.7,9.7,6.7,19c0.2,0,0.5,0,0.8,0c2.6,0,7.1,0.5,10.4,3.9
			c3.5,3.6,4.5,9.3,3.1,17c-0.2,0.7-4.1,15-7.5,20.4l-0.2,0.2c-0.1,0.1-6.2,5.3-10.4,17.2l-0.1,0.2c-0.1,0.1-8.1,11.8-13.7,19.4
			c-0.1,0.2-11.7,14.7-14.7,18.4c0,0-6.8,10.2-8.8,23c0.2,1.3,1.1,8.9-4.5,15c-4.7,5.1-12.4,7.6-23.2,7.6c-2.9,0-6.1-0.2-9.5-0.6
			c-20.8-2.4-35.4-9.8-40.9-20.9c-3.5-7-3.2-15,0.9-22c0.1-0.3,15-26.5,8.6-44.8c-3.3-9.4-6.1-13.7-8.3-17.1
			c-2.3-3.6-4.2-6.5-5.7-13.2c-0.5-0.9-3.5-7-6-16.1c-3-10.8-9.5-30.2-19.7-38.5c-0.3-0.2-7.9-5.4-7.6-11.5c0.1-3.2,2.3-5.9,6.4-8.1
			l0.2-0.1l0.2,0c0,0,0.8-0.1,2.1-0.1c5.6,0,20.9,1.5,29.5,16.8c1.5,1.9,12.4,15.2,12.8,20.4c0.4,0.8,2.3,3.7,4.7,4
			c0.1,0,0.3,0,0.4,0c1.2,0,2.5-0.7,3.8-2.1c1-0.9,8.9-8.5,13.2-9.9c1.5-1.9,11.9-14.8,11.9-22.5l0-0.1c0-0.2,2.8-24.4,13.7-48.6
			c0.4-1.6,5.9-20.6,15.4-25.6C137,20.9,138.6,20.5,140.2,20.5 M77.5,132.4c-0.2,0-0.4,0-0.7,0c-3.8-0.5-6.2-5-6.3-5.2l-0.1-0.2
			v-0.2c0-3.3-7.4-13.5-12.4-19.5l-0.1-0.2c-8-14.5-22.4-15.9-27.7-15.9c-0.9,0-1.5,0-1.8,0.1c-3.3,1.9-5.1,4-5.2,6.4
			c-0.2,5,6.7,9.8,6.8,9.8c10.7,8.7,17.4,28.5,20.4,39.6c2.6,9.4,5.9,15.7,5.9,15.8l0.1,0.2c1.5,6.5,3.2,9.2,5.5,12.7
			c2.3,3.5,5.1,7.9,8.5,17.5c6.7,19.2-8.1,45.4-8.7,46.5c-3.7,6.4-4,13.7-0.8,20.1c5.3,10.5,19.2,17.5,39.4,19.8
			c3.3,0.4,6.4,0.6,9.3,0.6c10.1,0,17.3-2.3,21.6-7c5.4-5.8,4-13.3,4-13.4l0-0.2l0-0.2c2-13.4,8.9-23.6,9.2-24.1
			c3-3.7,14.6-18.2,14.7-18.4c5.3-7.1,12.7-18,13.5-19.2c4.1-11.6,9.8-17,10.8-17.9c3.2-5.3,7.1-19.5,7.1-19.6
			c1.2-7,0.4-12.1-2.6-15.2c-2.8-2.9-6.8-3.3-9-3.3c-1,0-1.6,0.1-1.6,0.1l-1.2,0.2l0-1.2c0.2-9.2-1.7-15.4-5.8-18.5
			c-2.2-1.6-4.7-2.1-6.7-2.1c-2.2,0-3.8,0.5-3.8,0.5l-1.2,0.4l-0.1-1.3c-0.4-5.3-2.4-9.3-5.8-11.8c-3.7-2.8-8.6-3.4-12.3-3.4
			c-3.2,0-5.6,0.5-5.7,0.5l-0.9,0.2l-0.3-0.9c-3.6-12.1,1.7-26.1,2.3-27.6c2-12.6,6.3-24.9,6.4-25.1c7-16.7,6.2-23.8,4.2-26.8
			c-1.3-2.1-3.3-2.2-3.3-2.2l-0.3-0.1c-0.9-0.3-1.7-0.4-2.5-0.4c-1.3,0-2.5,0.3-3.8,1c-8.9,4.7-14.4,24.2-14.4,24.4l-0.1,0.1
			c-10.6,23.4-13.4,46.7-13.6,48c-0.1,8.9-12.1,23.3-12.6,23.9l-0.2,0.2l-0.3,0.1c-3.1,0.8-10.1,7.1-12.5,9.4
			C81.1,131.5,79.3,132.4,77.5,132.4 M140.2,19.5c-1.7,0-3.5,0.5-5.2,1.3c-9.7,5.1-15.2,23.7-15.9,26.1
			c-10.9,24.1-13.7,48.6-13.8,48.8l0,0l0,0l0,0.1l0,0v0c0,7.1-9.7,19.4-11.5,21.6c-4.6,1.7-12.4,9.1-13.3,10l0,0l0,0
			c-1.1,1.2-2.1,1.8-3.1,1.8c-0.1,0-0.2,0-0.3,0c-1.5-0.2-3-1.8-3.9-3.3c-0.7-5.6-10.8-18-13-20.6C51.6,89.9,36.2,88.2,30,88.2
			c-1.4,0-2.2,0.1-2.2,0.1l-0.2,0l-0.2,0l-0.2,0.1l-0.2,0.1c-4.4,2.4-6.8,5.4-6.9,9c-0.3,6.6,7.3,11.9,8,12.4
			c9.9,8.1,16.3,27.2,19.3,38c2.4,8.8,5.3,14.8,6,16.2c1.6,6.8,3.5,9.7,5.8,13.4c2.2,3.4,4.9,7.6,8.2,16.9c6.3,17.9-8.4,43.7-8.5,44
			c-4.2,7.3-4.5,15.6-0.9,22.9c5.7,11.4,20.5,19,41.7,21.4c3.4,0.4,6.6,0.6,9.6,0.6c11,0,19-2.7,23.9-7.9c5.7-6.2,5-13.8,4.8-15.6
			c1.9-11.8,7.8-21.3,8.6-22.4c3.1-3.7,14.6-18.2,14.7-18.3c5.6-7.5,13.4-18.9,13.7-19.4l0-0.1l0-0.1l0.1-0.2l0-0.1l0-0.1
			c4.1-11.5,10-16.8,10.1-16.8l0.1,0l0.1-0.1l0.2-0.2l0.1-0.1l0-0.1c3.5-5.7,7.5-20.5,7.6-20.6l0,0l0,0c1.4-8,0.3-14.1-3.4-17.9
			c-3.5-3.6-8.2-4.2-10.9-4.2c-0.1-9.1-2.5-15.4-7.1-18.8c-2.4-1.8-5.2-2.7-8.5-2.7c-0.9,0-1.7,0.1-2.4,0.2
			c-0.8-5.1-3.1-9.1-6.8-11.8c-4.5-3.3-10.1-4-14.1-4c-1.8,0-3.3,0.1-4.4,0.3c-2.4-11.1,2.7-23.8,2.7-24l0-0.1l0-0.1l0.1-0.2l0-0.1
			l0-0.1c1.8-11.7,5.8-23.3,6.2-24.6l0,0c6-14.3,7.3-24.2,3.9-29.5c-1.8-2.8-4.4-3.4-5.4-3.5C142.4,19.6,141.3,19.5,140.2,19.5
			L140.2,19.5z M109.4,96.1c0.2-1.6,3.1-24.6,13.5-47.6l0,0l0,0l0.1-0.1l0,0l0,0c0.1-0.2,5.5-19.3,13.9-23.8
			c1.1-0.6,2.2-0.9,3.3-0.9c0.7,0,1.5,0.1,2.2,0.4l0.1,0l0.1,0l0.3,0.1l0.1,0l0.1,0c0,0,1.4,0.1,2.5,1.7c3.5,5.4-1.2,18.5-4.3,25.9
			l0,0l0,0c0,0.1-4.4,12.5-6.4,25.1c-0.8,2-5.9,15.9-2.3,28.1l0.3,0.9l0.3,0.9l0.9-0.2l0.9-0.2c0,0,2.3-0.5,5.5-0.5
			c3.4,0,8.1,0.6,11.7,3.2c3.2,2.4,5,6.1,5.4,11.1l0.1,1.3l0.1,1.3l1.2-0.4l1.2-0.4c0.1,0,1.5-0.5,3.5-0.5c2.4,0,4.4,0.6,6.1,1.9
			c3.8,2.8,5.6,8.8,5.4,17.6l0,1.2l0,1.2l1.2-0.2l1.2-0.2c0,0,0.6-0.1,1.5-0.1c2,0,5.7,0.4,8.3,3c2.8,2.8,3.6,7.6,2.4,14.3
			c-0.2,0.8-3.9,14.1-6.9,19.2c-1.4,1.2-6.9,6.8-10.9,18c-1.1,1.6-8.3,12-13.5,19l-0.2,0.3c-3.5,4.4-12,15-14.5,18.1l0,0l0,0
			c-0.3,0.4-7.3,10.9-9.3,24.5l0,0.2l0,0.2l0,0.2l0,0.2c0,0.1,1.3,7.1-3.7,12.5c-4.1,4.4-11.1,6.7-20.9,6.7c-2.8,0-5.9-0.2-9.2-0.6
			c-19.8-2.3-33.5-9.1-38.6-19.2c-3-6.1-2.8-13,0.8-19.1c0.6-1.1,15.7-27.7,8.8-47.3c-3.4-9.7-6.3-14.1-8.6-17.7
			c-2.2-3.4-3.9-6.1-5.4-12.4l0-0.1l0-0.1l-0.1-0.2l0-0.1l0-0.1c-0.1-0.3-3.3-6.5-5.8-15.6c-3.1-11.2-9.9-31.3-20.7-40.1l0,0l0,0
			c-1.8-1.2-6.5-5.3-6.3-8.9c0.1-2,1.6-3.8,4.5-5.4c0.3,0,0.8,0,1.5,0c5.5,0,19.1,1.5,26.8,15.4l0,0l0,0l0.1,0.2l0,0l0,0
			c6,7.2,12.2,16.2,12.2,18.8v0.2v0.2l0.1,0.2l0.1,0.2c0.1,0.2,2.8,5.2,7.1,5.7c0.3,0,0.5,0,0.8,0c2.1,0,4.1-1,5.9-3.1
			c3.3-3.2,9.5-8.5,12.1-9.1l0.3-0.1l0.3-0.1l0.2-0.2l0.2-0.2C97.9,119,109.3,105.2,109.4,96.1L109.4,96.1z"/>
	</g>
</g>
<g opacity="0.75">
	<path fill="#FFFFFF" d="M31.4,120.3c-11.9,0-21.6-9.7-21.6-21.6S19.4,77,31.4,77C43.3,77,53,86.7,53,98.6S43.3,120.3,31.4,120.3z
		 M31.4,78.2c-11.3,0-20.4,9.2-20.4,20.4s9.2,20.4,20.4,20.4s20.4-9.2,20.4-20.4S42.6,78.2,31.4,78.2z"/>
</g>
<g opacity="0.5">
	<path fill="#FFFFFF" d="M31.4,124.9c-14.5,0-26.3-11.8-26.3-26.3s11.8-26.3,26.3-26.3s26.3,11.8,26.3,26.3S45.8,124.9,31.4,124.9z
		 M31.4,73.6c-13.8,0-25,11.2-25,25s11.2,25,25,25s25-11.2,25-25S45.2,73.6,31.4,73.6z"/>
</g>
<g opacity="0.25">
	<path fill="#FFFFFF" d="M31.4,130C14.1,130,0,115.9,0,98.6s14.1-31.4,31.4-31.4c17.3,0,31.4,14.1,31.4,31.4S48.6,130,31.4,130z
		 M31.4,68.5C14.7,68.5,1.2,82,1.2,98.6s13.5,30.1,30.1,30.1s30.1-13.5,30.1-30.1S48,68.5,31.4,68.5z"/>
</g>
<g opacity="0.75">
	<path fill="#FFFFFF" d="M139.2,54.6c-12.3,0-22.3-10-22.3-22.3c0-12.3,10-22.3,22.3-22.3c12.3,0,22.3,10,22.3,22.3
		C161.5,44.6,151.5,54.6,139.2,54.6z M139.2,11.3c-11.6,0-21.1,9.4-21.1,21.1c0,11.6,9.4,21.1,21.1,21.1s21.1-9.4,21.1-21.1
		C160.3,20.7,150.8,11.3,139.2,11.3z"/>
</g>
<g opacity="0.5">
	<path fill="#FFFFFF" d="M139.2,59.4c-14.9,0-27.1-12.1-27.1-27.1s12.1-27.1,27.1-27.1s27.1,12.1,27.1,27.1S154.1,59.4,139.2,59.4z
		 M139.2,6.5c-14.2,0-25.8,11.6-25.8,25.8c0,14.2,11.6,25.8,25.8,25.8S165,46.5,165,32.3C165,18.1,153.4,6.5,139.2,6.5z"/>
</g>
<g opacity="0.25">
	<path fill="#FFFFFF" d="M139.2,64.6c-17.8,0-32.3-14.5-32.3-32.3c0-17.8,14.5-32.3,32.3-32.3c17.8,0,32.3,14.5,32.3,32.3
		C171.5,50.1,157,64.6,139.2,64.6z M139.2,1.3c-17.1,0-31.1,13.9-31.1,31.1c0,17.1,13.9,31.1,31.1,31.1s31.1-13.9,31.1-31.1
		C170.3,15.2,156.3,1.3,139.2,1.3z"/>
</g>
<g>
	<g>
		
			<rect x="47.8" y="74.5" transform="matrix(0.5237 0.8519 -0.8519 0.5237 87.6034 -5.8353)" fill="#FFFFFF" width="2.5" height="1.9"/>
	</g>
	<g>
		<path fill="#FFFFFF" d="M53.6,74.1L52.3,72l3.1-1.9l1.3,2.1L53.6,74.1z M59.8,70.2l-1.3-2.1l3.1-1.9l1.3,2.1L59.8,70.2z
			 M66.1,66.4l-1.3-2.1l3.1-1.9l1.3,2.1L66.1,66.4z M72.3,62.6L71,60.5l3.1-1.9l1.3,2.1L72.3,62.6z M78.6,58.7l-1.3-2.1l3.1-1.9
			l1.3,2.1L78.6,58.7z M84.8,54.9l-1.3-2.1l3.1-1.9l1.3,2.1L84.8,54.9z M91.1,51l-1.3-2.1l3.1-1.9l1.3,2.1L91.1,51z M97.3,47.2
			L96,45.1l3.1-1.9l1.3,2.1L97.3,47.2z"/>
	</g>
	<g>
		
			<rect x="102.5" y="40.9" transform="matrix(0.5234 0.8521 -0.8521 0.5234 85.0544 -68.416)" fill="#FFFFFF" width="2.5" height="1.9"/>
	</g>
	<g>
		<g>
			<polygon fill="#FFFFFF" points="52,79.3 42.2,79.6 46.9,71 			"/>
		</g>
	</g>
	<g>
		<g>
			<polygon fill="#FFFFFF" points="105.8,46.3 110.5,37.6 100.7,37.9 			"/>
		</g>
	</g>
</g>
<g>
	<path fill="#FFFFFF" d="M32.8,111.5l-0.9-0.5c2.9-4.8,3.1-9.6,0.5-14.4c-1.9-3.6-4.8-5.8-4.8-5.8l0.6-0.8
		C28.4,90,40.3,99.2,32.8,111.5z"/>
</g>
<g>
	<path fill="#FFFFFF" d="M137.7,37.5c-1.3,0-2.4-0.5-3.2-1.4c-2.9-3.2-2.4-10.6-2.4-10.9l1,0.1c0,0.1-0.5,7.3,2.1,10.2
		c0.7,0.7,1.5,1.1,2.5,1.1c5.7,0,10.5-5.7,10.6-5.7l0.8,0.6C148.8,31.6,143.9,37.5,137.7,37.5z"/>
</g>
<g>
	<g>
		<path fill="#FFFFFF" d="M68.6,148.4c0-0.1,0-0.2,0-0.3c0-0.2-0.1-0.5,0-0.9l0.1-1.4l0.3-1.7l0.2-0.6c0.1-0.4,0.3-0.9,0.4-1.3
			c0.1-0.2,0.2-0.4,0.3-0.7c0.2-0.4,0.4-0.8,0.6-1.3l0.3-0.5c0.2-0.5,0.5-0.9,0.8-1.4c0.4-0.7,0.8-1.2,1.2-1.8
			c0.3-0.5,0.7-0.9,1-1.4l0.2-0.3c0.8-0.9,1.6-1.8,2.5-2.7c0.7-0.7,1.4-1.4,1.9-1.8l0.6-0.5l0.4-0.3l1.5,2l-1,0.7
			c-0.5,0.4-1.2,0.9-1.9,1.5c-0.9,0.8-1.8,1.6-2.6,2.4l-0.3,0.3c-0.4,0.4-0.7,0.8-1.1,1.2c-0.4,0.5-0.9,1-1.3,1.6
			c-0.3,0.4-0.6,0.8-0.9,1.2l-0.3,0.5c-0.2,0.4-0.4,0.7-0.6,1.1c-0.1,0.2-0.2,0.4-0.3,0.6c-0.2,0.4-0.3,0.8-0.5,1.1l-0.2,0.6
			l-0.4,1.6l-0.2,1.4c-0.1,0.3,0,0.5,0,0.7c0,0.1,0,0.2,0,0.4l0,1l-0.5,0L68.6,148.4z"/>
		<path fill="#FFFFFF" d="M79.4,129.9l1.2,1.6c0,0-0.3,0.2-0.8,0.5c-0.5,0.4-1.2,0.9-2,1.5c-0.8,0.7-1.7,1.5-2.6,2.4
			c-0.5,0.5-0.9,0.9-1.4,1.5c-0.5,0.5-0.9,1-1.3,1.6c-0.4,0.5-0.8,1.1-1.2,1.7c-0.4,0.6-0.7,1.2-1,1.7c-0.3,0.6-0.5,1.2-0.7,1.7
			c-0.2,0.6-0.3,1.1-0.5,1.6c-0.1,0.5-0.1,1-0.2,1.4c-0.1,0.4,0,0.8,0,1.1c0,0.6,0,1,0,1s0-0.3-0.1-1c0-0.3-0.1-0.7-0.1-1.1
			c0-0.4,0-0.9,0.1-1.5c0.1-0.5,0.2-1.1,0.3-1.7c0.2-0.6,0.4-1.2,0.6-1.8c0.3-0.6,0.5-1.3,0.9-1.9c0.3-0.6,0.7-1.3,1.1-1.9
			c0.4-0.6,0.8-1.2,1.2-1.8c0.4-0.6,0.9-1.1,1.3-1.6c0.9-1,1.7-2,2.5-2.7c0.8-0.8,1.4-1.4,1.9-1.8c0.2-0.2,0.4-0.4,0.6-0.5
			C79.3,129.9,79.4,129.9,79.4,129.9 M79.5,129.2l-0.4,0.3l-0.2,0.2l-0.6,0.5c-0.5,0.5-1.2,1.1-1.9,1.8c-0.9,0.9-1.7,1.8-2.5,2.8
			l-0.2,0.3c-0.4,0.4-0.7,0.9-1.1,1.4c-0.4,0.5-0.8,1.1-1.2,1.8c-0.3,0.4-0.6,0.9-0.8,1.4c-0.1,0.2-0.2,0.3-0.3,0.5
			c-0.2,0.4-0.4,0.9-0.6,1.3c-0.1,0.2-0.2,0.4-0.3,0.6c-0.2,0.5-0.3,0.9-0.5,1.3c-0.1,0.2-0.1,0.4-0.2,0.6l0,0l0,0l-0.2,1l-0.1,0.7
			l0,0l0,0l-0.1,1.5c0,0.3,0,0.6,0.1,0.9c0,0.1,0,0.2,0,0.3l0.1,1l1-0.1l0-1c0-0.1,0-0.2,0-0.3c0-0.2,0-0.4,0-0.6l0.1-0.7l0.1-0.7
			l0.3-1l0.2-0.6c0.1-0.2,0.2-0.4,0.2-0.5c0.2-0.4,0.3-0.8,0.5-1.1c0.1-0.2,0.2-0.4,0.3-0.6c0.2-0.4,0.4-0.7,0.6-1.1
			c0.1-0.2,0.2-0.3,0.3-0.5c0.3-0.4,0.5-0.8,0.8-1.2c0.5-0.6,0.9-1.1,1.3-1.6c0.4-0.4,0.7-0.8,1.1-1.2l0.3-0.3
			c0.8-0.8,1.7-1.6,2.6-2.4c0.7-0.6,1.4-1.2,1.9-1.5l0.8-0.5l0.4-0.3l-0.3-0.4l-1.2-1.6L79.5,129.2L79.5,129.2z"/>
	</g>
</g>
<g>
	<g>
		<path fill="#FFFFFF" d="M51.6,155.7c-0.1-0.4-0.1-0.9-0.1-1.4c0-0.3,0-0.5,0-0.8l0-0.2c0-0.8-0.1-1.6,0-2.4c0-0.3,0-0.6,0.1-0.9
			c0-0.6,0.1-1.3,0.2-1.9c0.1-0.3,0.1-0.6,0.2-0.9c0.1-0.7,0.2-1.4,0.4-2.1l0.1-0.4c0.2-0.9,0.4-1.8,0.7-2.6l0.5-1.5l0.6-1.5
			c0.3-0.7,0.6-1.3,0.9-1.9c0.1-0.3,0.3-0.6,0.4-0.8l0.1-0.1c0.5-0.8,0.9-1.6,1.4-2.3c0.5-0.7,0.9-1.5,1.4-2.1c0.7-1,1.5-2,2.4-2.9
			c0.6-0.7,1-1,1-1l0.3,0.4c0,0-0.4,0.4-0.9,1.1c-0.8,1-1.5,2-2.2,3c-0.4,0.7-0.9,1.4-1.3,2.1c-0.4,0.7-0.8,1.5-1.2,2.3l-0.1,0.1
			c-0.1,0.3-0.2,0.6-0.4,0.9c-0.3,0.6-0.5,1.2-0.7,1.9l-0.5,1.4l-0.4,1.5c-0.2,0.8-0.4,1.7-0.5,2.5l-0.1,0.5
			c-0.1,0.6-0.2,1.3-0.3,1.9c0,0.3-0.1,0.6-0.1,1c-0.1,0.6-0.1,1.2-0.1,1.8c0,0.3,0,0.6,0,0.9c0,0.8,0,1.5,0.1,2.2l0,0.2
			c0,0.3,0.1,0.5,0.1,0.8c0,0.4,0.1,0.9,0.1,1.2l0.6,3.2l-2.5,0.5L51.6,155.7z"/>
		<path fill="#FFFFFF" d="M62,128c0,0-0.4,0.4-0.9,1.1c-0.6,0.7-1.4,1.7-2.2,3c-0.4,0.6-0.8,1.4-1.3,2.1c-0.4,0.8-0.8,1.6-1.3,2.5
			c-0.4,0.9-0.8,1.8-1.1,2.7c-0.2,0.5-0.3,1-0.5,1.4l-0.4,1.5c-0.3,1-0.5,2-0.6,3c-0.2,1-0.2,2-0.4,2.9c-0.1,0.9-0.1,1.9-0.1,2.7
			c0,0.9,0.1,1.7,0.1,2.4c0.1,0.8,0.1,1.4,0.2,2c0.1,0.6,0.2,1.1,0.3,1.6c0.2,0.9,0.3,1.4,0.3,1.4l-2,0.4c0,0-0.1-0.5-0.2-1.5
			c-0.1-0.5-0.1-1-0.2-1.7c-0.1-0.6-0.1-1.4-0.1-2.2c0-0.8-0.1-1.7,0-2.6c0.1-0.9,0.1-1.9,0.3-2.8c0.2-1,0.3-2,0.5-3
			c0.2-1,0.5-2,0.8-3l0.5-1.5c0.2-0.5,0.4-1,0.6-1.4c0.4-1,0.9-1.8,1.3-2.7c0.5-0.9,0.9-1.7,1.4-2.4c0.5-0.8,0.9-1.5,1.4-2.1
			c0.9-1.3,1.8-2.2,2.4-2.9C61.6,128.3,62,128,62,128 M61.7,127.6c0,0-0.4,0.4-1,1.1c-0.9,1-1.7,1.9-2.4,3c-0.5,0.6-1,1.4-1.4,2.1
			c-0.5,0.7-0.9,1.5-1.4,2.4l-0.1,0.1c-0.1,0.3-0.3,0.6-0.4,0.9c-0.3,0.6-0.6,1.3-0.9,1.9l-0.6,1.4l-0.5,1.5
			c-0.3,0.9-0.5,1.7-0.7,2.6l-0.1,0.4c-0.2,0.7-0.3,1.4-0.4,2.1c0,0.3-0.1,0.6-0.2,0.9c-0.1,0.7-0.2,1.3-0.2,2c0,0.3,0,0.6-0.1,0.9
			c-0.1,0.9-0.1,1.7,0,2.4l0,0.2c0,0.3,0,0.6,0,0.8c0,0.5,0,1,0.1,1.4l0.2,1.2l0.1,0.5l0.2,1.5l0.1,0.5l0.5-0.1l2-0.4l0.5-0.1
			l-0.1-0.5l-0.3-1.4l-0.3-1.5l0-0.1c-0.1-0.4-0.1-0.8-0.1-1.2c0-0.3,0-0.5-0.1-0.8l0-0.2c-0.1-0.7-0.1-1.4-0.1-2.2
			c0-0.3,0-0.6,0-0.9c0-0.6,0-1.2,0.1-1.7c0-0.3,0.1-0.7,0.1-1c0.1-0.6,0.1-1.3,0.3-1.9l0.1-0.5c0.1-0.8,0.3-1.7,0.5-2.4l0.4-1.5
			l0.3-0.9l0.2-0.5c0.2-0.6,0.5-1.3,0.7-1.9c0.1-0.3,0.3-0.6,0.4-0.9l0-0.1c0.4-0.8,0.8-1.6,1.2-2.3c0.4-0.7,0.8-1.5,1.3-2.1
			c0.6-1,1.3-2,2.2-3c0.5-0.7,0.9-1,0.9-1L61.7,127.6L61.7,127.6z"/>
	</g>
</g>
</svg>
