<!-- Generator: Adobe Illustrator 19.1.0, SVG Export Plug-In  -->
<svg version="1.1"
	 xmlns="http://www.w3.org/2000/svg" xmlns:xlink="http://www.w3.org/1999/xlink" xmlns:a="http://ns.adobe.com/AdobeSVGViewerExtensions/3.0/"
	 x="0px" y="0px" width="187.4px" height="275.7px" viewBox="0 0 187.4 275.7" enable-background="new 0 0 187.4 275.7"
	 xml:space="preserve">
<defs>
</defs>
<g>
	<path fill="#FFFFFF" d="M103.9,275.7c-2.9,0-6.1-0.2-9.5-0.6c-20.8-2.4-35.4-9.8-40.9-20.9c-3.5-7-3.2-15,0.9-22
		c0.1-0.3,15-26.5,8.6-44.8c-3.3-9.4-6.1-13.7-8.3-17.1c-2.3-3.6-4.2-6.5-5.7-13.2c-0.5-0.9-3.5-7-6-16.1
		c-3-10.8-9.5-30.2-19.7-38.5c-0.3-0.2-7.9-5.4-7.6-11.5c0.1-3.2,2.3-5.9,6.4-8.1l0.2-0.1l0.2,0c0.2,0,21.1-2.2,31.6,16.8
		c1.5,1.9,12.4,15.2,12.8,20.4c0.4,0.8,2.3,3.7,4.7,4c1.4,0.2,2.8-0.5,4.2-2.1c1-0.9,8.9-8.5,13.2-9.9c1.5-1.9,11.9-14.8,11.9-22.5
		l0-0.1c0-0.2,2.8-24.4,13.7-48.6c0.4-1.6,5.9-20.6,15.4-25.6c2.5-1.3,5.1-1.6,7.7-0.7c0.7,0.1,3,0.5,4.7,3.1c3.2,5,1.9,14.6-4,28.6
		c0,0.1-4.3,12.3-6.3,24.8l-0.1,0.2c-0.1,0.1-5.5,13.8-2.5,25.5c2.9-0.5,12.1-1.4,18.7,3.4c3.7,2.7,5.8,6.8,6.5,12.1
		c2.2-0.4,7-0.9,11.2,2.2c4.5,3.3,6.7,9.7,6.7,19c2.3-0.1,7.5,0.1,11.2,3.9c3.5,3.6,4.5,9.3,3.1,17c-0.2,0.7-4.1,15-7.5,20.4
		l-0.2,0.2c-0.1,0.1-6.2,5.3-10.4,17.2l-0.1,0.2c-0.1,0.1-8.1,11.8-13.7,19.4c-0.1,0.2-11.7,14.7-14.7,18.4c0,0-6.8,10.2-8.8,23
		c0.2,1.3,1.1,8.9-4.5,15C122.3,273.2,114.6,275.7,103.9,275.7z M22.8,84.8c-3.3,1.9-5.1,4-5.2,6.4c-0.2,5,6.7,9.8,6.8,9.8
		c10.7,8.7,17.4,28.5,20.4,39.6c2.6,9.4,5.9,15.7,5.9,15.8l0.1,0.2c1.5,6.5,3.2,9.2,5.5,12.7c2.3,3.5,5.1,7.9,8.5,17.5
		c6.7,19.2-8.1,45.4-8.7,46.5c-3.7,6.4-4,13.7-0.8,20.1c5.3,10.5,19.2,17.5,39.4,19.8c15,1.7,25.4-0.4,30.9-6.4
		c5.4-5.8,4-13.3,4-13.4l0-0.2l0-0.2c2-13.4,8.9-23.6,9.2-24.1c3-3.7,14.6-18.2,14.7-18.4c5.3-7.1,12.7-18,13.5-19.2
		c4.1-11.6,9.8-17,10.8-17.9c3.2-5.3,7.1-19.5,7.1-19.6c1.2-7,0.4-12.1-2.6-15.2c-4-4.1-10.5-3.2-10.6-3.2l-1.2,0.2l0-1.2
		c0.2-9.2-1.7-15.4-5.8-18.5c-4.6-3.4-10.5-1.6-10.5-1.6l-1.2,0.4l-0.1-1.3c-0.4-5.3-2.4-9.3-5.8-11.8c-7-5.2-17.9-3-18-2.9
		l-0.9,0.2l-0.3-0.9c-3.6-12.1,1.7-26.1,2.3-27.6c2-12.6,6.3-24.9,6.4-25.1c7-16.7,6.2-23.8,4.2-26.8c-1.3-2.1-3.3-2.2-3.3-2.2
		l-0.3-0.1c-2.1-0.7-4.2-0.5-6.3,0.6c-8.9,4.7-14.4,24.2-14.4,24.4l-0.1,0.1c-10.6,23.4-13.4,46.7-13.6,48
		c-0.1,8.9-12.1,23.3-12.6,23.9l-0.2,0.2l-0.3,0.1c-3.1,0.8-10.1,7.1-12.5,9.4c-1.8,2-3.8,3-5.9,2.7c-3.8-0.5-6.2-5-6.3-5.2
		l-0.1-0.2v-0.2c0-3.3-7.4-13.5-12.4-19.5l-0.1-0.2C42.9,83.7,24.8,84.6,22.8,84.8z"/>
</g>
<g opacity="0.75">
	<path fill="#FFFFFF" d="M25.8,110C16,110,8,102,8,92.2s8-17.8,17.8-17.8c9.8,0,17.8,8,17.8,17.8S35.7,110,25.8,110z M25.8,75.3
		C16.6,75.3,9,82.9,9,92.2S16.6,109,25.8,109s16.8-7.6,16.8-16.8S35.1,75.3,25.8,75.3z"/>
</g>
<g opacity="0.5">
	<path fill="#FFFFFF" d="M25.8,113.8c-11.9,0-21.6-9.7-21.6-21.6s9.7-21.6,21.6-21.6s21.6,9.7,21.6,21.6S37.8,113.8,25.8,113.8z
		 M25.8,71.5c-11.4,0-20.6,9.3-20.6,20.6s9.3,20.6,20.6,20.6s20.6-9.3,20.6-20.6S37.2,71.5,25.8,71.5z"/>
</g>
<g opacity="0.25">
	<path fill="#FFFFFF" d="M25.8,118C11.6,118,0,106.4,0,92.2s11.6-25.8,25.8-25.8c14.2,0,25.8,11.6,25.8,25.8S40.1,118,25.8,118z
		 M25.8,67.3C12.1,67.3,1,78.5,1,92.2S12.1,117,25.8,117s24.8-11.1,24.8-24.8S39.5,67.3,25.8,67.3z"/>
</g>
<g opacity="0.75">
	<path fill="#FFFFFF" d="M133.7,43.7c-9.8,0-17.8-8-17.8-17.8c0-9.8,8-17.8,17.8-17.8c9.8,0,17.8,8,17.8,17.8
		C151.5,35.7,143.5,43.7,133.7,43.7z M133.7,9c-9.3,0-16.8,7.6-16.8,16.8c0,9.3,7.6,16.8,16.8,16.8s16.8-7.6,16.8-16.8
		C150.5,16.6,143,9,133.7,9z"/>
</g>
<g opacity="0.5">
	<path fill="#FFFFFF" d="M133.7,47.5c-11.9,0-21.6-9.7-21.6-21.6s9.7-21.6,21.6-21.6s21.6,9.7,21.6,21.6S145.6,47.5,133.7,47.5z
		 M133.7,5.2c-11.4,0-20.6,9.3-20.6,20.6c0,11.4,9.3,20.6,20.6,20.6s20.6-9.3,20.6-20.6C154.3,14.5,145.1,5.2,133.7,5.2z"/>
</g>
<g opacity="0.25">
	<path fill="#FFFFFF" d="M133.7,51.7c-14.2,0-25.8-11.6-25.8-25.8c0-14.2,11.6-25.8,25.8-25.8c14.2,0,25.8,11.6,25.8,25.8
		C159.5,40.1,147.9,51.7,133.7,51.7z M133.7,1c-13.7,0-24.8,11.1-24.8,24.8c0,13.7,11.1,24.8,24.8,24.8s24.8-11.1,24.8-24.8
		C158.5,12.1,147.4,1,133.7,1z"/>
</g>
<g>
	<g>
		
			<rect x="54.7" y="69" transform="matrix(0.5237 0.8519 -0.8519 0.5237 85.9553 -14.2238)" fill="#FFFFFF" width="2" height="1.5"/>
	</g>
	<g>
		<path fill="#FFFFFF" d="M59.4,68.7l-1-1.7l2.5-1.6l1,1.7L59.4,68.7z M64.4,65.6l-1-1.7l2.5-1.6l1,1.7L64.4,65.6z M69.5,62.4
			l-1-1.7l2.5-1.6l1,1.7L69.5,62.4z M74.6,59.3l-1-1.7l2.5-1.6l1,1.7L74.6,59.3z M79.6,56.2l-1-1.7l2.5-1.6l1,1.7L79.6,56.2z
			 M84.7,53.1l-1-1.7l2.5-1.6l1,1.7L84.7,53.1z M89.7,50l-1-1.7l2.5-1.6l1,1.7L89.7,50z M94.8,46.9l-1-1.7l2.5-1.6l1,1.7L94.8,46.9z
			"/>
	</g>
	<g>
		
			<rect x="99" y="41.8" transform="matrix(0.5234 0.8521 -0.8521 0.5234 83.8958 -64.9026)" fill="#FFFFFF" width="2" height="1.5"/>
	</g>
	<g>
		<g>
			<polygon fill="#FFFFFF" points="58.1,72.9 50.2,73.2 54,66.1 			"/>
		</g>
	</g>
	<g>
		<g>
			<polygon fill="#FFFFFF" points="101.7,46.2 105.5,39.2 97.5,39.4 			"/>
		</g>
	</g>
</g>
<g>
	<path fill="#FFFFFF" d="M27.3,105l-0.9-0.5c2.9-4.8,3.1-9.6,0.5-14.4c-1.9-3.6-4.8-5.8-4.8-5.8l0.6-0.8
		C22.9,83.5,34.7,92.8,27.3,105z"/>
</g>
<g>
	<path fill="#FFFFFF" d="M132.2,31c-1.3,0-2.4-0.5-3.2-1.4c-2.9-3.2-2.4-10.6-2.4-10.9l1,0.1c0,0.1-0.5,7.3,2.1,10.2
		c0.7,0.7,1.5,1.1,2.5,1.1c5.7,0,10.5-5.7,10.6-5.7l0.8,0.6C143.3,25.1,138.3,31,132.2,31z"/>
</g>
<g>
	<path fill="#FFFFFF" d="M75.1,125c0,0-0.3,0.2-0.8,0.5c-0.5,0.4-1.2,0.9-2,1.5c-0.8,0.7-1.7,1.5-2.6,2.4c-0.5,0.5-0.9,0.9-1.4,1.5
		c-0.5,0.5-0.9,1-1.3,1.6c-0.4,0.5-0.8,1.1-1.2,1.7c-0.4,0.6-0.7,1.2-1,1.7c-0.3,0.6-0.5,1.2-0.7,1.7c-0.2,0.6-0.3,1.1-0.5,1.6
		c-0.1,0.5-0.1,1-0.2,1.4c-0.1,0.4,0,0.8,0,1.1c0,0.6,0,1,0,1s0-0.3-0.1-1c0-0.3-0.1-0.7-0.1-1.1c0-0.4,0-0.9,0.1-1.5
		c0.1-0.5,0.2-1.1,0.3-1.7c0.2-0.6,0.4-1.2,0.6-1.8c0.3-0.6,0.5-1.3,0.9-1.9c0.3-0.6,0.7-1.3,1.1-1.9c0.4-0.6,0.8-1.2,1.2-1.8
		c0.4-0.6,0.9-1.1,1.3-1.6c0.9-1,1.7-2,2.5-2.7c0.8-0.8,1.4-1.4,1.9-1.8c0.2-0.2,0.4-0.4,0.6-0.5c0.1-0.1,0.2-0.2,0.2-0.2L75.1,125z
		"/>
</g>
<g>
	<path fill="#FFFFFF" d="M56.5,121.5c0,0-0.4,0.4-0.9,1.1c-0.6,0.7-1.4,1.7-2.2,3c-0.4,0.6-0.8,1.4-1.3,2.1
		c-0.4,0.8-0.8,1.6-1.3,2.5c-0.4,0.9-0.8,1.8-1.1,2.7c-0.2,0.5-0.3,1-0.5,1.4l-0.4,1.5c-0.3,1-0.5,2-0.6,3c-0.2,1-0.2,2-0.4,2.9
		c-0.1,0.9-0.1,1.9-0.1,2.7c0,0.9,0.1,1.7,0.1,2.4c0.1,0.8,0.1,1.4,0.2,2c0.1,0.6,0.2,1.1,0.3,1.6c0.2,0.9,0.3,1.4,0.3,1.4l-2,0.4
		c0,0-0.1-0.5-0.2-1.5c-0.1-0.5-0.1-1-0.2-1.7c-0.1-0.6-0.1-1.4-0.1-2.2c0-0.8-0.1-1.7,0-2.6c0.1-0.9,0.1-1.9,0.3-2.8
		c0.2-1,0.3-2,0.5-3c0.2-1,0.5-2,0.8-3l0.5-1.5c0.2-0.5,0.4-1,0.6-1.4c0.4-1,0.9-1.8,1.3-2.7c0.5-0.9,0.9-1.7,1.4-2.4
		c0.5-0.8,0.9-1.5,1.4-2.1c0.9-1.3,1.8-2.2,2.4-2.9C56.1,121.8,56.5,121.5,56.5,121.5z"/>
</g>
</svg>
