<!-- Generator: Adobe Illustrator 19.1.0, SVG Export Plug-In  -->
<svg version="1.1"
	 xmlns="http://www.w3.org/2000/svg" xmlns:xlink="http://www.w3.org/1999/xlink" xmlns:a="http://ns.adobe.com/AdobeSVGViewerExtensions/3.0/"
	 x="0px" y="0px" width="153.5px" height="260.5px" viewBox="0 0 153.5 260.5" enable-background="new 0 0 153.5 260.5"
	 xml:space="preserve">
<defs>
</defs>
<g opacity="0.75">
	<path fill="#FFFFFF" d="M25.8,43.7C16,43.7,8,35.7,8,25.8S16,8,25.8,8c9.8,0,17.8,8,17.8,17.8S35.7,43.7,25.8,43.7z M25.8,9
		C16.6,9,9,16.6,9,25.8s7.6,16.8,16.8,16.8s16.8-7.6,16.8-16.8S35.1,9,25.8,9z"/>
</g>
<g opacity="0.5">
	<path fill="#FFFFFF" d="M25.8,47.5c-11.9,0-21.6-9.7-21.6-21.6S13.9,4.2,25.8,4.2s21.6,9.7,21.6,21.6S37.8,47.5,25.8,47.5z
		 M25.8,5.2c-11.4,0-20.6,9.3-20.6,20.6c0,11.4,9.3,20.6,20.6,20.6s20.6-9.3,20.6-20.6C46.5,14.5,37.2,5.2,25.8,5.2z"/>
</g>
<g opacity="0.25">
	<path fill="#FFFFFF" d="M25.8,51.7C11.6,51.7,0,40.1,0,25.8S11.6,0,25.8,0c14.2,0,25.8,11.6,25.8,25.8S40.1,51.7,25.8,51.7z
		 M25.8,1C12.1,1,1,12.1,1,25.8s11.1,24.8,24.8,24.8s24.8-11.1,24.8-24.8S39.5,1,25.8,1z"/>
</g>
<g>
	<path fill="#FFFFFF" d="M102.5,260.5c-25.2,0-33.4-20.5-33.5-20.8l-0.1-0.2l0-0.2c0.5-15.6-5.3-28.5-6.1-30.3
		c-18.3-13.6-32.9-35.2-34.1-37c-8.4-7.3-8.3-21.8-8.3-24.2c-3.4-5.5-6.9-23.1-7.4-26.1c-3-2.4-10.1-10.5-10.3-17.2
		c-0.1-2.4,0.7-4.4,2.4-5.8c4.6-3.6,10.8-3.2,18,1.3c3.1,1.9,5.7,4.2,7.4,5.7c-0.6-4.3-2.1-9.7-2.1-9.8c-0.4-1.1-9.9-28.2-9.9-35.1
		c0-6.7-2.6-19.7-2.6-19.8c-0.1-0.8-2.1-16.9,3.3-23.1c1.4-1.6,3.2-2.4,5.4-2.4c10.9,0,12.6,10.8,13.9,18.7c0.1,0.6,0.2,1.2,0.3,1.8
		c1.2,7.2,2,13.8,2.1,15c3.7,6.4,6.4,15.9,8.5,23.6c1.1,3.8,2,7,2.8,8.8c0.6,1.5,1.8,3.3,3.8,3.8c2.4,0.5,5.5-1,8.9-4.3
		c7.2-7,15.8-0.1,15.8-0.1c0.1,0.1,7.5,7.3,11.2,4c2.2-2,5.6-2.7,9.2-1.9c3.4,0.7,6.3,2.6,7.2,4.7c0.9,2.1,8,2.4,12.7,1.9
		c0,0,0,0,0,0c4.9,0,9.6,4.9,14.1,14.7c3.3,7,5.3,14.2,5.3,14.2l0,0.2c0,0.2,2.5,21.4,4.2,29.1c1.7,7.8-2.9,27.1-3.3,28.8
		c-1.9,27,11.7,49.5,11.9,49.8l0.1,0.1l0,0.2c3.7,15.4-27.9,27.2-29.3,27.7C115.7,259.2,108.6,260.5,102.5,260.5z M70.9,239.1
		c1.1,2.7,13.1,29.4,52.3,15.2c0.3-0.1,31.1-11.6,28.1-25.2c-1.2-2-14-24.3-12.1-50.9l0-0.2c0-0.2,4.9-20.4,3.3-27.9
		c-1.6-7.6-4-27.6-4.2-29.2c-2.1-7.7-9.4-27.4-17.3-27.4c-2,0.2-12.7,1-14.6-3.1c-0.7-1.5-3.1-3-5.8-3.6c-3-0.6-5.7-0.1-7.4,1.4
		c-5.1,4.6-13.5-3.7-13.9-4c-0.2-0.2-7.2-5.8-13.1,0c-3.9,3.8-7.6,5.4-10.7,4.8c-2.3-0.5-4.1-2.2-5.3-5c-0.8-2-1.7-5.3-2.8-9.1
		c-2.2-7.6-4.9-17.1-8.4-23.3l-0.1-0.2l0-0.2c0-0.1-0.8-7.2-2.2-15.1c-0.1-0.6-0.2-1.2-0.3-1.8c-1.3-8-2.7-17-11.9-17
		c-1.6,0-2.8,0.6-3.9,1.8c-4.8,5.5-2.8,21.3-2.8,21.4c0.1,0.5,2.7,13.3,2.7,20.1c0,6.6,9.7,34.2,9.8,34.5c0.1,0.4,2.4,8.6,2.4,13
		v2.6L31,109c-0.2-0.2-15.2-16.2-24.6-8.7c-1.2,1-1.8,2.4-1.7,4.2c0.2,5.8,7.1,13.9,9.8,15.9l0.3,0.2l0.1,0.4
		c0,0.2,3.8,20.8,7.3,25.9l0.2,0.3l0,0.3c0,0.2-0.7,15.9,7.6,23l0.2,0.2c0.1,0.2,15.1,22.9,33.9,36.7l0.2,0.1l0.1,0.2
		C64.8,208.4,71.4,222,70.9,239.1z"/>
</g>
<g>
	<g>
		<polygon fill="#FFFFFF" points="58.2,21.5 59.8,21.5 59.8,21.5 		"/>
	</g>
	<g>
		<polygon fill="#FFFFFF" points="62.7,21.4 65.7,21.3 65.7,21.6 62.7,21.6 		"/>
	</g>
	<g>
		<polygon fill="#FFFFFF" points="68.7,21.3 71.6,21.2 71.6,21.8 68.7,21.7 		"/>
	</g>
	<g>
		<polygon fill="#FFFFFF" points="74.6,21.2 77.6,21.1 77.6,21.9 74.6,21.8 		"/>
	</g>
	<g>
		<polygon fill="#FFFFFF" points="80.5,21 83.5,21 83.5,22 80.5,21.9 		"/>
	</g>
	<g>
		<polygon fill="#FFFFFF" points="86.5,20.9 89.5,20.9 89.5,22.1 86.5,22.1 		"/>
	</g>
	<g>
		<polygon fill="#FFFFFF" points="92.4,20.8 95.4,20.7 95.4,22.2 92.4,22.2 		"/>
	</g>
	<g>
		<polygon fill="#FFFFFF" points="98.4,20.7 101.3,20.6 101.3,22.4 98.4,22.3 		"/>
	</g>
	<g>
		<polygon fill="#FFFFFF" points="104.3,20.6 107.3,20.5 107.3,22.5 104.3,22.4 		"/>
	</g>
	<g>
		<polygon fill="#FFFFFF" points="110.3,20.4 113.2,20.4 113.2,22.6 110.3,22.5 		"/>
	</g>
	<g>
		<polygon fill="#FFFFFF" points="116.2,20.3 119.2,20.3 119.2,22.7 116.2,22.7 		"/>
	</g>
	<g>
		<polygon fill="#FFFFFF" points="122.1,20.2 123.6,20.2 123.6,22.8 122.1,22.8 		"/>
	</g>
	<g>
		<g>
			<polygon fill="#FFFFFF" points="121.9,27.5 132.2,21.5 121.9,15.5 			"/>
		</g>
	</g>
</g>
<g>
	<path fill="#FFFFFF" d="M24.2,31.5c-4.7,0-7.6-4.6-7.7-4.6l0.8-0.5c0,0.1,3.4,5.2,8.4,4c5.1-1.3,5.2-6.3,5.3-11.5l1,0
		c-0.1,5.4-0.2,11-6,12.5C25.3,31.5,24.7,31.5,24.2,31.5z"/>
</g>
<g>
	<path fill="#FFFFFF" d="M10.8,118.8c-1.1-5.7,1-9,1.8-10l-7.2-9l0.8-0.6l7.8,9.7l-0.3,0.3c0,0-3,3.1-1.8,9.5L10.8,118.8z"/>
</g>
<g>
	<path fill="#FFFFFF" d="M32.7,108c0.2,0.8,0.4,1.5,0.5,2.3c0.1,0.8,0.3,1.5,0.3,2.3c0.2,1.5,0.2,3.1,0.2,4.6c0,0.4,0,0.8-0.1,1.2
		c0,0.4,0,0.8-0.1,1.2l-0.1,1.1c0,0.4-0.1,0.8-0.2,1.1c-0.1,0.4-0.1,0.8-0.2,1.1l-0.3,1.1c-0.2,0.7-0.4,1.5-0.6,2.2l0,0.1l0,0.1
		c-0.9,1.2-1.7,2.6-2.5,3.9c-0.4,0.7-0.7,1.4-1.1,2c-0.3,0.7-0.7,1.4-1,2.1c-0.3,0.7-0.6,1.4-0.9,2.2l-0.4,1.1
		c-0.1,0.4-0.2,0.7-0.3,1.1c-0.1,0.4-0.2,0.8-0.2,1.1c0,0.4-0.1,0.8-0.1,1.2c0,0.4,0,0.8,0,1.2l0.1,1.2l-0.2-1.2c0-0.4,0-0.8,0-1.2
		c0-0.4,0-0.8,0.1-1.2c0-0.4,0.1-0.8,0.2-1.2c0.1-0.4,0.1-0.8,0.2-1.2l0.3-1.1c0.2-0.7,0.5-1.5,0.7-2.2c0.3-0.7,0.6-1.5,0.9-2.2
		c0.3-0.7,0.7-1.4,1-2.1c0.7-1.4,1.5-2.8,2.3-4.1l-0.1,0.1c0.2-0.7,0.4-1.4,0.5-2.2l0.2-1.1c0.1-0.4,0.1-0.7,0.1-1.1
		c0-0.4,0.1-0.7,0.1-1.1l0.1-1.1c0-0.4,0-0.7,0-1.1c0-0.4,0-0.7,0-1.1c0-1.5-0.2-2.9-0.4-4.4c-0.1-0.7-0.3-1.4-0.4-2.2
		c-0.2-0.7-0.4-1.4-0.6-2.1L32.7,108z"/>
</g>
<g>
	<path fill="#FFFFFF" d="M51.2,187.5c0,0,0.4,0.1,1,0.5c0.6,0.3,1.5,0.8,2.5,1.5c0.5,0.3,1,0.7,1.6,1.2c0.6,0.4,1.1,0.9,1.7,1.5
		c0.5,0.6,1.1,1.1,1.6,1.7c0.3,0.3,0.5,0.6,0.8,0.9c0.2,0.3,0.5,0.7,0.7,1c0.5,0.7,0.9,1.4,1.2,2.1c0.2,0.4,0.4,0.7,0.5,1.1
		c0.2,0.4,0.3,0.7,0.4,1.1c0.3,0.7,0.4,1.5,0.7,2.1c0.2,0.7,0.3,1.4,0.4,2c0.1,0.6,0.2,1.2,0.2,1.7c0,0.5,0,1,0.1,1.3
		c0,0.7,0.1,1.1,0.1,1.1l-2-0.1c0,0,0-0.4,0-1.1c0-0.3,0-0.7,0-1.2c0-0.5-0.1-1-0.1-1.6c-0.1-0.6-0.1-1.2-0.2-1.9
		c-0.2-0.6-0.2-1.4-0.5-2c-0.1-0.3-0.2-0.7-0.3-1.1c-0.1-0.4-0.2-0.7-0.4-1.1c-0.3-0.7-0.6-1.4-1-2.1c-0.2-0.3-0.4-0.7-0.6-1
		c-0.2-0.3-0.4-0.6-0.7-1c-0.4-0.7-1-1.2-1.4-1.8c-0.5-0.5-1-1.1-1.5-1.5c-0.5-0.5-1-0.9-1.5-1.3c-0.9-0.8-1.8-1.3-2.4-1.7
		C51.5,187.7,51.2,187.5,51.2,187.5z"/>
</g>
</svg>
