<!-- Generator: Adobe Illustrator 19.1.0, SVG Export Plug-In  -->
<svg version="1.1"
	 xmlns="http://www.w3.org/2000/svg" xmlns:xlink="http://www.w3.org/1999/xlink" xmlns:a="http://ns.adobe.com/AdobeSVGViewerExtensions/3.0/"
	 x="0px" y="0px" width="20.4px" height="27px" viewBox="0 0 20.4 27" enable-background="new 0 0 20.4 27" xml:space="preserve">
<defs>
</defs>
<g>
	<g>
		<g>
			<g>
				<path fill="#CEAF70" d="M17,0c-1.9,0-3.5,0.6-3.5,2.5v22c0,1.9,1.6,2.5,3.5,2.5c1.9,0,3.5-0.6,3.5-2.5v-22C20.4,0.6,18.9,0,17,0
					z"/>
				<path fill="#CEAF70" d="M3.5,0C1.6,0,0,0.6,0,2.5v22C0,26.4,1.6,27,3.5,27c1.9,0,3.5-0.6,3.5-2.5v-22C6.9,0.6,5.4,0,3.5,0z"/>
			</g>
		</g>
	</g>
</g>
</svg>
