<!-- Generator: Adobe Illustrator 19.1.0, SVG Export Plug-In  -->
<svg version="1.1"
	 xmlns="http://www.w3.org/2000/svg" xmlns:xlink="http://www.w3.org/1999/xlink" xmlns:a="http://ns.adobe.com/AdobeSVGViewerExtensions/3.0/"
	 x="0px" y="0px" width="38.2px" height="32.2px" viewBox="0 0 38.2 32.2" enable-background="new 0 0 38.2 32.2"
	 xml:space="preserve">
<defs>
</defs>
<g>
	<path fill="#CEAF70" d="M17.2,3.1l-6.3,5.4C10.5,8.8,10,9,9.5,9H2.2C1,9,0,10,0,11.2v9.4c0,1.2,1,2.2,2.2,2.2h7.4
		c0.5,0,1,0.2,1.4,0.5l6.1,5.3c1.2,1,3,0.2,3-1.4V4.4C20.2,2.9,18.4,2,17.2,3.1z"/>
	<g>
		<path fill="#CEAF70" d="M24.9,23.8c-0.2,0-0.5-0.1-0.7-0.3c-0.4-0.4-0.4-1,0-1.3c0.1-0.1,2-2.1,2-6.3c0-4-1.9-5.7-1.9-5.7
			c-0.4-0.3-0.5-0.9-0.1-1.3c0.3-0.4,0.9-0.5,1.3-0.1c0.1,0.1,2.6,2.2,2.6,7.2c0,4.9-2.4,7.5-2.5,7.6C25.4,23.7,25.2,23.8,24.9,23.8
			z"/>
	</g>
	<g>
		<path fill="#CEAF70" d="M28.2,28.3c-0.2,0-0.5-0.1-0.7-0.3c-0.4-0.4-0.4-1,0-1.3c0,0,0.9-0.9,1.8-2.7c0.8-1.7,1.8-4.4,1.8-8.2
			c0-3.7-0.9-6.3-1.7-7.8c-0.9-1.6-1.7-2.3-1.7-2.4c-0.4-0.3-0.5-0.9-0.1-1.3c0.3-0.4,0.9-0.5,1.3-0.1C29,4.3,33,7.7,33,15.7
			c0,8-3.9,12.1-4.1,12.2C28.7,28.2,28.5,28.3,28.2,28.3z"/>
	</g>
	<g>
		<path fill="#CEAF70" d="M32.1,32.2c-0.2,0-0.5-0.1-0.7-0.3c-0.4-0.4-0.4-1,0-1.3c0,0,4.9-5.1,4.9-15c0-9.8-4.8-13.9-4.8-13.9
			c-0.4-0.3-0.5-0.9-0.1-1.3c0.3-0.4,0.9-0.5,1.3-0.1c0.2,0.2,5.5,4.6,5.5,15.4c0,10.7-5.2,16.1-5.4,16.3
			C32.6,32.1,32.4,32.2,32.1,32.2z"/>
	</g>
</g>
</svg>
