<!-- Generator: Adobe Illustrator 19.1.0, SVG Export Plug-In  -->
<svg version="1.1"
	 xmlns="http://www.w3.org/2000/svg" xmlns:xlink="http://www.w3.org/1999/xlink" xmlns:a="http://ns.adobe.com/AdobeSVGViewerExtensions/3.0/"
	 x="0px" y="0px" width="36.1px" height="24.4px" viewBox="0 0 36.1 24.4" enable-background="new 0 0 36.1 24.4"
	 xml:space="preserve">
<defs>
</defs>
<g>
	<g>
		<path fill="#FFFFFF" d="M5.4,12.2h1.4l5.2,12.2h-1.7l-1.2-3H2.9l-1.3,3H0L5.4,12.2z M6,14.1L6,14.1l-2.6,6h5L6,14.1z"/>
		<path fill="#FFFFFF" d="M23,0h2.7l10.4,24.4h-3.4l-2.5-6H18.1l-2.5,6h-3.3L23,0z M24.3,3.7L24.3,3.7l-5.1,12h10L24.3,3.7z"/>
	</g>
	<polygon fill="#FFFFFF" points="6.1,7.7 4,4.1 1.9,0.5 6.1,0.5 10.2,0.5 8.1,4.1 	"/>
</g>
</svg>
