<!-- Generator: Adobe Illustrator 19.1.0, SVG Export Plug-In  -->
<svg version="1.1"
	 xmlns="http://www.w3.org/2000/svg" xmlns:xlink="http://www.w3.org/1999/xlink" xmlns:a="http://ns.adobe.com/AdobeSVGViewerExtensions/3.0/"
	 x="0px" y="0px" width="12.9px" height="17px" viewBox="0 0 12.9 17" enable-background="new 0 0 12.9 17" xml:space="preserve">
<defs>
</defs>
<g>
	<g>
		<g>
			<g>
				<path fill="#FFFFFF" d="M10.7,0C9.5,0,8.5,0.4,8.5,1.6v13.8c0,1.2,1,1.6,2.2,1.6c1.2,0,2.2-0.4,2.2-1.6V1.6
					C12.9,0.4,11.9,0,10.7,0z"/>
				<path fill="#FFFFFF" d="M2.2,0C1,0,0,0.4,0,1.6v13.8C0,16.6,1,17,2.2,17c1.2,0,2.2-0.4,2.2-1.6V1.6C4.4,0.4,3.4,0,2.2,0z"/>
			</g>
		</g>
	</g>
</g>
</svg>
