<!-- Generator: Adobe Illustrator 19.1.0, SVG Export Plug-In  -->
<svg version="1.1"
	 xmlns="http://www.w3.org/2000/svg" xmlns:xlink="http://www.w3.org/1999/xlink" xmlns:a="http://ns.adobe.com/AdobeSVGViewerExtensions/3.0/"
	 x="0px" y="0px" width="23.4px" height="19.8px" viewBox="0 0 23.4 19.8" enable-background="new 0 0 23.4 19.8"
	 xml:space="preserve">
<defs>
</defs>
<g>
	<path fill="#FFFFFF" d="M10.5,1.9L6.7,5.2C6.5,5.4,6.1,5.5,5.8,5.5H1.4C0.6,5.5,0,6.1,0,6.9v5.8C0,13.4,0.6,14,1.4,14h4.5
		c0.3,0,0.6,0.1,0.9,0.3l3.8,3.2c0.7,0.6,1.8,0.1,1.8-0.8v-14C12.4,1.8,11.3,1.3,10.5,1.9z"/>
	<g>
		<path fill="#FFFFFF" d="M15.3,14.6c-0.1,0-0.3-0.1-0.4-0.2c-0.2-0.2-0.2-0.6,0-0.8c0,0,1.2-1.3,1.2-3.8c0-2.5-1.2-3.5-1.2-3.5
			c-0.2-0.2-0.3-0.6-0.1-0.8c0.2-0.2,0.6-0.3,0.8-0.1c0.1,0.1,1.6,1.4,1.6,4.4c0,3-1.5,4.6-1.6,4.6C15.6,14.5,15.4,14.6,15.3,14.6z"
			/>
	</g>
	<g>
		<path fill="#FFFFFF" d="M17.3,17.3c-0.1,0-0.3-0.1-0.4-0.2c-0.2-0.2-0.2-0.6,0-0.8c0,0,0.5-0.6,1.1-1.7c0.5-1,1.1-2.7,1.1-5
			c0-2.3-0.6-3.9-1.1-4.8c-0.5-1-1.1-1.4-1.1-1.4c-0.2-0.2-0.3-0.6-0.1-0.8c0.2-0.2,0.6-0.3,0.8-0.1c0.1,0.1,2.5,2.2,2.5,7.1
			c0,4.9-2.4,7.4-2.5,7.5C17.6,17.3,17.4,17.3,17.3,17.3z"/>
	</g>
	<g>
		<path fill="#FFFFFF" d="M19.7,19.8c-0.1,0-0.3-0.1-0.4-0.2c-0.2-0.2-0.2-0.6,0-0.8c0,0,3-3.1,3-9.2c0-6-2.9-8.5-2.9-8.5
			c-0.2-0.2-0.3-0.6-0.1-0.8c0.2-0.2,0.6-0.3,0.8-0.1c0.1,0.1,3.4,2.8,3.4,9.4c0,6.6-3.2,9.9-3.3,10C20,19.7,19.8,19.8,19.7,19.8z"
			/>
	</g>
</g>
</svg>
